%TF.GenerationSoftware,KiCad,Pcbnew,10.0.2*%
%TF.CreationDate,2026-06-06T19:44:15-04:00*%
%TF.ProjectId,FourthAxis,466f7572-7468-4417-9869-732e6b696361,rev?*%
%TF.SameCoordinates,Original*%
%TF.FileFunction,Copper,L2,Bot*%
%TF.FilePolarity,Positive*%
%FSLAX46Y46*%
G04 Gerber Fmt 4.6, Leading zero omitted, Abs format (unit mm)*
G04 Created by KiCad (PCBNEW 10.0.2) date 2026-06-06 19:44:15*
%MOMM*%
%LPD*%
G01*
G04 APERTURE LIST*
%TA.AperFunction,ComponentPad*%
%ADD10C,2.200000*%
%TD*%
%TA.AperFunction,ComponentPad*%
%ADD11C,4.400000*%
%TD*%
%TA.AperFunction,ComponentPad*%
%ADD12R,1.700000X1.700000*%
%TD*%
%TA.AperFunction,ComponentPad*%
%ADD13C,1.700000*%
%TD*%
%TA.AperFunction,HeatsinkPad*%
%ADD14C,0.600000*%
%TD*%
%TA.AperFunction,ViaPad*%
%ADD15C,0.600000*%
%TD*%
%TA.AperFunction,Conductor*%
%ADD16C,0.254000*%
%TD*%
%TA.AperFunction,Conductor*%
%ADD17C,0.635000*%
%TD*%
%TA.AperFunction,Conductor*%
%ADD18C,2.540000*%
%TD*%
%TA.AperFunction,Conductor*%
%ADD19C,0.381000*%
%TD*%
%TA.AperFunction,Conductor*%
%ADD20C,0.200000*%
%TD*%
G04 APERTURE END LIST*
D10*
%TO.P,SW25,1,1_1*%
%TO.N,Net-(D25-A)*%
X170434000Y-122174000D03*
%TO.P,SW25,2,2_2*%
%TO.N,Net-(U2-Y6)*%
X164084000Y-124714000D03*
%TD*%
%TO.P,SW14,1,1_1*%
%TO.N,Net-(D14-A)*%
X112522000Y-141478000D03*
%TO.P,SW14,2,2_2*%
%TO.N,Net-(U2-Y3)*%
X106172000Y-144018000D03*
%TD*%
D11*
%TO.P,H4,1,1_1*%
%TO.N,unconnected-(H4-Pad1)*%
X61722000Y-136906000D03*
%TD*%
D12*
%TO.P,J4,1,Pin_1_1*%
%TO.N,GND*%
X145034000Y-43815000D03*
D13*
%TO.P,J4,2,Pin_2_2*%
%TO.N,5V*%
X147574000Y-43815000D03*
%TO.P,J4,3,Pin_3_3*%
%TO.N,/HandWheel/ENC_B_IN*%
X150114000Y-43815000D03*
%TO.P,J4,4,Pin_4_4*%
%TO.N,/HandWheel/ENC_A_IN*%
X152654000Y-43815000D03*
%TD*%
D10*
%TO.P,SW21,1,1_1*%
%TO.N,Net-(D21-A)*%
X151130000Y-122174000D03*
%TO.P,SW21,2,2_2*%
%TO.N,Net-(U2-Y5)*%
X144780000Y-124714000D03*
%TD*%
%TO.P,SW8,1,1_1*%
%TO.N,Net-(D8-A)*%
X73914000Y-141478000D03*
%TO.P,SW8,2,2_2*%
%TO.N,Net-(U2-Y1)*%
X67564000Y-144018000D03*
%TD*%
D12*
%TO.P,J2,1,Pin_1_1*%
%TO.N,GND*%
X84582000Y-43815000D03*
D13*
%TO.P,J2,2,Pin_2_2*%
%TO.N,/MotorDriveOut/ALR_IN*%
X87122000Y-43815000D03*
%TO.P,J2,3,Pin_3_3*%
%TO.N,/MotorDriveOut/EN_OUT*%
X89662000Y-43815000D03*
%TO.P,J2,4,Pin_4_4*%
%TO.N,/MotorDriveOut/DIR_OUT*%
X92202000Y-43815000D03*
%TO.P,J2,5,Pin_5_5*%
%TO.N,/MotorDriveOut/STP_OUT*%
X94742000Y-43815000D03*
%TD*%
D10*
%TO.P,SW20,1,1_1*%
%TO.N,Net-(D20-A)*%
X151130000Y-102870000D03*
%TO.P,SW20,2,2_2*%
%TO.N,Net-(U2-Y5)*%
X144780000Y-105410000D03*
%TD*%
%TO.P,SW23,1,1_1*%
%TO.N,Net-(D23-A)*%
X170434000Y-83566000D03*
%TO.P,SW23,2,2_2*%
%TO.N,Net-(U2-Y6)*%
X164084000Y-86106000D03*
%TD*%
%TO.P,SW24,1,1_1*%
%TO.N,Net-(D24-A)*%
X170434000Y-102870000D03*
%TO.P,SW24,2,2_2*%
%TO.N,Net-(U2-Y6)*%
X164084000Y-105410000D03*
%TD*%
%TO.P,SW11,1,1_1*%
%TO.N,Net-(D11-A)*%
X93218000Y-122174000D03*
%TO.P,SW11,2,2_2*%
%TO.N,Net-(U2-Y2)*%
X86868000Y-124714000D03*
%TD*%
D11*
%TO.P,H7,1,1_1*%
%TO.N,unconnected-(H7-Pad1)*%
X100330000Y-98298000D03*
%TD*%
D10*
%TO.P,SW12,1,1_1*%
%TO.N,Net-(D12-A)*%
X93218000Y-141478000D03*
%TO.P,SW12,2,2_2*%
%TO.N,Net-(U2-Y2)*%
X86868000Y-144018000D03*
%TD*%
%TO.P,SW13,1,1_1*%
%TO.N,Net-(D13-A)*%
X112522000Y-122174000D03*
%TO.P,SW13,2,2_2*%
%TO.N,Net-(U2-Y3)*%
X106172000Y-124714000D03*
%TD*%
D12*
%TO.P,J1,1,Pin_1_1*%
%TO.N,GND*%
X44953000Y-43815000D03*
D13*
%TO.P,J1,2,Pin_2_2*%
%TO.N,/Power Distribution/36V*%
X47493000Y-43815000D03*
%TD*%
D10*
%TO.P,SW1,1,1_1*%
%TO.N,Net-(D1-A)*%
X54610000Y-83566000D03*
%TO.P,SW1,2,2_2*%
%TO.N,Net-(U2-Y0)*%
X48260000Y-86106000D03*
%TD*%
D12*
%TO.P,J7,1,Pin_1_1*%
%TO.N,GND*%
X99613800Y-43815000D03*
D13*
%TO.P,J7,2,Pin_2_2*%
%TO.N,ESTOP*%
X102153800Y-43815000D03*
%TD*%
D10*
%TO.P,SW9,1,1_1*%
%TO.N,Net-(D9-A)*%
X93218000Y-83566000D03*
%TO.P,SW9,2,2_2*%
%TO.N,Net-(U2-Y2)*%
X86868000Y-86106000D03*
%TD*%
D11*
%TO.P,H8,1,1_1*%
%TO.N,unconnected-(H8-Pad1)*%
X61722000Y-98298000D03*
%TD*%
D10*
%TO.P,SW18,1,1_1*%
%TO.N,Net-(D18-A)*%
X131826000Y-141478000D03*
%TO.P,SW18,2,2_2*%
%TO.N,Net-(U2-Y4)*%
X125476000Y-144018000D03*
%TD*%
%TO.P,SW10,1,1_1*%
%TO.N,Net-(D10-A)*%
X93218000Y-102870000D03*
%TO.P,SW10,2,2_2*%
%TO.N,Net-(U2-Y2)*%
X86868000Y-105410000D03*
%TD*%
D11*
%TO.P,H2,1,1_1*%
%TO.N,unconnected-(H2-Pad1)*%
X119634000Y-136906000D03*
%TD*%
D12*
%TO.P,J6,1,Pin_1_1*%
%TO.N,GND*%
X137922000Y-57785000D03*
D13*
%TO.P,J6,2,Pin_2_2*%
%TO.N,3V3*%
X137922000Y-55245000D03*
%TO.P,J6,3,Pin_3_3*%
%TO.N,PROG_N*%
X137922000Y-52705000D03*
%TO.P,J6,4,Pin_4_4*%
%TO.N,PROG_P*%
X137922000Y-50165000D03*
%TD*%
D10*
%TO.P,SW4,1,1_1*%
%TO.N,Net-(D4-A)*%
X54610000Y-141478000D03*
%TO.P,SW4,2,2_2*%
%TO.N,Net-(U2-Y0)*%
X48260000Y-144018000D03*
%TD*%
%TO.P,SW3,1,1_1*%
%TO.N,Net-(D3-A)*%
X54610000Y-122174000D03*
%TO.P,SW3,2,2_2*%
%TO.N,Net-(U2-Y0)*%
X48260000Y-124714000D03*
%TD*%
%TO.P,SW15,1,1_1*%
%TO.N,Net-(D15-A)*%
X131826000Y-83566000D03*
%TO.P,SW15,2,2_2*%
%TO.N,Net-(U2-Y4)*%
X125476000Y-86106000D03*
%TD*%
%TO.P,SW17,1,1_1*%
%TO.N,Net-(D17-A)*%
X131826000Y-122174000D03*
%TO.P,SW17,2,2_2*%
%TO.N,Net-(U2-Y4)*%
X125476000Y-124714000D03*
%TD*%
%TO.P,SW2,1,1_1*%
%TO.N,Net-(D2-A)*%
X54610000Y-102870000D03*
%TO.P,SW2,2,2_2*%
%TO.N,Net-(U2-Y0)*%
X48260000Y-105410000D03*
%TD*%
D11*
%TO.P,H1,1,1_1*%
%TO.N,unconnected-(H1-Pad1)*%
X158242000Y-136906000D03*
%TD*%
%TO.P,H6,1,1_1*%
%TO.N,unconnected-(H6-Pad1)*%
X119634000Y-98298000D03*
%TD*%
D10*
%TO.P,SW6,1,1_1*%
%TO.N,Net-(D6-A)*%
X73914000Y-102870000D03*
%TO.P,SW6,2,2_2*%
%TO.N,Net-(U2-Y1)*%
X67564000Y-105410000D03*
%TD*%
D12*
%TO.P,SW28,1*%
%TO.N,3V3*%
X57150000Y-43815000D03*
D13*
%TO.P,SW28,2*%
%TO.N,Net-(R16-Pad2)*%
X59690000Y-43815000D03*
%TO.P,SW28,3*%
%TO.N,GND*%
X62230000Y-43815000D03*
%TO.P,SW28,4*%
%TO.N,KNOB_1*%
X64770000Y-43815000D03*
%TD*%
D12*
%TO.P,J3,1,Pin_1_1*%
%TO.N,GND*%
X157734000Y-43815000D03*
D13*
%TO.P,J3,2,Pin_2_2*%
%TO.N,5V*%
X160274000Y-43815000D03*
%TO.P,J3,3,Pin_3_3*%
%TO.N,/EncoderIn/ENC_Z-*%
X162814000Y-43815000D03*
%TO.P,J3,4,Pin_4_4*%
%TO.N,/EncoderIn/ENC_Z+*%
X165354000Y-43815000D03*
%TO.P,J3,5,Pin_5_5*%
%TO.N,/EncoderIn/ENC_B-*%
X167894000Y-43815000D03*
%TO.P,J3,6,Pin_6_6*%
%TO.N,/EncoderIn/ENC_B+*%
X170434000Y-43815000D03*
%TO.P,J3,7,Pin_7_7*%
%TO.N,/EncoderIn/ENC_A-*%
X172974000Y-43815000D03*
%TO.P,J3,8,Pin_8_8*%
%TO.N,/EncoderIn/ENC_A+*%
X175514000Y-43815000D03*
%TD*%
D10*
%TO.P,SW19,1,1_1*%
%TO.N,Net-(D19-A)*%
X151130000Y-83566000D03*
%TO.P,SW19,2,2_2*%
%TO.N,Net-(U2-Y5)*%
X144780000Y-86106000D03*
%TD*%
%TO.P,SW5,1,1_1*%
%TO.N,Net-(D5-A)*%
X73914000Y-83566000D03*
%TO.P,SW5,2,2_2*%
%TO.N,Net-(U2-Y1)*%
X67564000Y-86106000D03*
%TD*%
%TO.P,SW7,1,1_1*%
%TO.N,Net-(D7-A)*%
X73914000Y-122174000D03*
%TO.P,SW7,2,2_2*%
%TO.N,Net-(U2-Y1)*%
X67564000Y-124714000D03*
%TD*%
D12*
%TO.P,J5,1,Pin_1_1*%
%TO.N,GND*%
X132461000Y-43815000D03*
D13*
%TO.P,J5,2,Pin_2_2*%
%TO.N,3V3*%
X135001000Y-43815000D03*
%TO.P,J5,3,Pin_3_3*%
%TO.N,SCREEN_CLK*%
X137541000Y-43815000D03*
%TO.P,J5,4,Pin_4_4*%
%TO.N,SCREEN_SDA*%
X140081000Y-43815000D03*
%TD*%
D10*
%TO.P,SW26,1,1_1*%
%TO.N,Net-(D26-A)*%
X170434000Y-141478000D03*
%TO.P,SW26,2,2_2*%
%TO.N,Net-(U2-Y6)*%
X164084000Y-144018000D03*
%TD*%
%TO.P,SW22,1,1_1*%
%TO.N,Net-(D22-A)*%
X151130000Y-141478000D03*
%TO.P,SW22,2,2_2*%
%TO.N,Net-(U2-Y5)*%
X144780000Y-144018000D03*
%TD*%
D11*
%TO.P,H5,1,1_1*%
%TO.N,unconnected-(H5-Pad1)*%
X158242000Y-98298000D03*
%TD*%
D14*
%TO.P,U1,39,GND_39*%
%TO.N,GND*%
X114806000Y-50011500D03*
X114806000Y-51536500D03*
X115568500Y-49249000D03*
X115568500Y-50774000D03*
X115568500Y-52299000D03*
X116331000Y-50011500D03*
X116331000Y-51536500D03*
X117093500Y-49249000D03*
X117093500Y-50774000D03*
X117093500Y-52299000D03*
X117856000Y-50011500D03*
X117856000Y-51536500D03*
%TD*%
D12*
%TO.P,SW27,1*%
%TO.N,3V3*%
X69596000Y-43815000D03*
D13*
%TO.P,SW27,2*%
%TO.N,Net-(R13-Pad2)*%
X72136000Y-43815000D03*
%TO.P,SW27,3*%
%TO.N,Net-(R14-Pad2)*%
X74676000Y-43815000D03*
%TO.P,SW27,4*%
%TO.N,GND*%
X77216000Y-43815000D03*
%TO.P,SW27,5*%
%TO.N,KNOB_2*%
X79756000Y-43815000D03*
%TD*%
D11*
%TO.P,H3,1,1_1*%
%TO.N,unconnected-(H3-Pad1)*%
X100330000Y-136906000D03*
%TD*%
D10*
%TO.P,SW16,1,1_1*%
%TO.N,Net-(D16-A)*%
X131826000Y-102870000D03*
%TO.P,SW16,2,2_2*%
%TO.N,Net-(U2-Y4)*%
X125476000Y-105410000D03*
%TD*%
D15*
%TO.N,KEY_3*%
X141024000Y-82753200D03*
X140589000Y-124206000D03*
%TO.N,GND*%
X53594000Y-47625000D03*
X46482000Y-53340000D03*
X118491000Y-88773000D03*
X95250000Y-63373000D03*
X155067000Y-54229000D03*
X81915000Y-53467000D03*
X161925000Y-58420000D03*
X160909000Y-59690000D03*
X95250000Y-56642000D03*
X74422000Y-56515000D03*
X110998000Y-48641000D03*
X99441000Y-57277000D03*
X108331000Y-94615000D03*
X146431000Y-56134000D03*
X71882000Y-56515000D03*
X94107000Y-71882000D03*
X80518000Y-55913000D03*
X54991000Y-56515000D03*
X94107000Y-60706000D03*
X131572000Y-59944000D03*
X131318000Y-57531000D03*
X66294000Y-55880000D03*
X104648000Y-48676500D03*
X56261000Y-56515000D03*
X58801000Y-56515000D03*
X170815000Y-53848000D03*
X156591000Y-54229000D03*
X110998000Y-45085000D03*
X148717000Y-50927000D03*
X44958000Y-46990000D03*
X46482000Y-58260000D03*
X103131641Y-48689500D03*
X94107000Y-54102000D03*
X64897000Y-58064400D03*
X95250000Y-53086000D03*
X99441000Y-74549000D03*
X94107000Y-67818000D03*
X98425000Y-48387000D03*
X94107000Y-66294000D03*
X103124000Y-47371000D03*
X109220000Y-93980000D03*
X52197000Y-58547000D03*
X83312000Y-55913000D03*
X44323000Y-45339000D03*
X169037000Y-58420000D03*
X151765000Y-56134000D03*
X81915000Y-58547000D03*
X63500000Y-55880000D03*
X109601000Y-43434000D03*
X94107000Y-55626000D03*
X75565000Y-53467000D03*
X95250000Y-68834000D03*
X119761000Y-88773000D03*
X43942000Y-48260000D03*
X112522000Y-47371000D03*
X176276000Y-52959000D03*
X53594000Y-49149000D03*
X78613000Y-60325000D03*
X43434000Y-43307000D03*
X52578000Y-51816000D03*
X169164000Y-52959000D03*
X147955000Y-56134000D03*
X153289000Y-56134000D03*
X131572000Y-53594000D03*
X70104000Y-57150000D03*
X104648000Y-47371000D03*
X64897000Y-53467000D03*
X76454000Y-62357000D03*
X99441000Y-54864000D03*
X176149000Y-58420000D03*
X45593000Y-45339000D03*
X175133000Y-59690000D03*
X43434000Y-44450000D03*
X45085000Y-55974000D03*
X73152000Y-56515000D03*
X75692000Y-56515000D03*
X163703000Y-53848000D03*
X59563000Y-62484000D03*
X100076000Y-63500000D03*
X100076000Y-69088000D03*
X112395000Y-43434000D03*
X61722000Y-60198000D03*
X154178000Y-50292000D03*
X52578000Y-46482000D03*
X168021000Y-59690000D03*
X119126000Y-88011000D03*
X47879000Y-55974000D03*
X94107000Y-62230000D03*
X57531000Y-56515000D03*
X95250000Y-74549000D03*
X69088000Y-58293000D03*
X53213000Y-57404000D03*
X162052000Y-52959000D03*
X94107000Y-73406000D03*
X107315000Y-93980000D03*
X53594000Y-50673000D03*
%TO.N,3V3*%
X95504000Y-76581000D03*
X98425000Y-68961000D03*
X98552000Y-72009000D03*
X59309000Y-50038000D03*
X98552000Y-66548000D03*
X143510000Y-64389000D03*
X98171000Y-57785000D03*
X113106200Y-86283800D03*
X66040000Y-51308000D03*
X106807000Y-46024800D03*
X67462400Y-76098400D03*
X98552000Y-60960000D03*
X98425000Y-63246000D03*
X149225000Y-52197000D03*
X143637000Y-52197000D03*
X154178000Y-52197000D03*
X84378800Y-76098400D03*
X104775000Y-91313000D03*
X116332000Y-76581000D03*
%TO.N,5V*%
X70866000Y-77597000D03*
X145923000Y-63246000D03*
X93289500Y-68460500D03*
%TO.N,KEY_4*%
X141478000Y-142620000D03*
X141884400Y-81991200D03*
%TO.N,KEY_1*%
X102108000Y-86741000D03*
X139446000Y-85725000D03*
%TO.N,KEY_2*%
X139192000Y-104902000D03*
X123952000Y-103251000D03*
X140208000Y-81991200D03*
X102489000Y-104902000D03*
%TO.N,ENCOD_B*%
X156210000Y-61630000D03*
X109667500Y-51495500D03*
%TO.N,PROG_N*%
X134620000Y-51860000D03*
%TO.N,PROG_P*%
X134620000Y-51010000D03*
%TO.N,HAND_INT*%
X128016000Y-58674000D03*
X148971000Y-49403000D03*
%TO.N,KNOB_1*%
X124330000Y-78762400D03*
X68376800Y-61518800D03*
X68376800Y-73660000D03*
%TO.N,MOTOR_ALR*%
X101801000Y-56001500D03*
X104140000Y-53594000D03*
%TO.N,STEP_DIR*%
X106934000Y-57404000D03*
X101854000Y-67437000D03*
%TO.N,SCREEN_CLK*%
X128524000Y-45974000D03*
%TO.N,SCREEN_SDA*%
X128524000Y-49784000D03*
%TO.N,ENCOD_Z*%
X109601000Y-47244000D03*
X155194000Y-61176000D03*
%TO.N,MOTOR_EN*%
X106426000Y-52832000D03*
X101854000Y-61849000D03*
%TO.N,ENCOD_A*%
X110998000Y-52959000D03*
X157353000Y-62103000D03*
%TO.N,HAND_DIR*%
X143637000Y-50038000D03*
X129284144Y-54865856D03*
%TO.N,MOTOR_STP*%
X109601000Y-56134000D03*
X101854000Y-73025000D03*
%TO.N,KNOB_2*%
X101244400Y-78486000D03*
X79349600Y-62941200D03*
X108712000Y-78486000D03*
%TD*%
%TO.N,KEY_3*%
D16*
X141024000Y-82753200D02*
X141024000Y-123771000D01*
X141024000Y-123771000D02*
X140589000Y-124206000D01*
%TO.N,GND*%
D17*
X129032000Y-53594000D02*
X131572000Y-53594000D01*
X128129880Y-59944000D02*
X127198500Y-59012620D01*
X107315000Y-93980000D02*
X109220000Y-93980000D01*
X127198500Y-58335380D02*
X127875880Y-57658000D01*
X131191000Y-57658000D02*
X131318000Y-57531000D01*
X109220000Y-93980000D02*
X108966000Y-93980000D01*
X131318000Y-57531000D02*
X128510880Y-57531000D01*
X128510880Y-57531000D02*
X127254000Y-56274120D01*
D18*
X65328800Y-80924400D02*
X61569600Y-77165200D01*
D17*
X127875880Y-57658000D02*
X131191000Y-57658000D01*
D18*
X147421600Y-65024000D02*
X131521200Y-80924400D01*
D17*
X109220000Y-93980000D02*
X113157000Y-93980000D01*
X113157000Y-93980000D02*
X119126000Y-88011000D01*
X127198500Y-59012620D02*
X127198500Y-58335380D01*
D18*
X131521200Y-80924400D02*
X65328800Y-80924400D01*
D17*
X127254000Y-56274120D02*
X127254000Y-55372000D01*
D18*
X147777200Y-65024000D02*
X147421600Y-65024000D01*
D17*
X129032000Y-53594000D02*
X127254000Y-51816000D01*
X137922000Y-57785000D02*
X135763000Y-57785000D01*
X131572000Y-59944000D02*
X128129880Y-59944000D01*
X132461000Y-43815000D02*
X118618000Y-43815000D01*
X119126000Y-88138000D02*
X119761000Y-88773000D01*
X135763000Y-57785000D02*
X131572000Y-53594000D01*
D18*
X61569600Y-77165200D02*
X61569600Y-74066400D01*
D17*
X127254000Y-51816000D02*
X119660500Y-51816000D01*
X119660500Y-51816000D02*
X117093500Y-49249000D01*
X157734000Y-43815000D02*
X157734000Y-49657000D01*
X127254000Y-55372000D02*
X129032000Y-53594000D01*
X145034000Y-43942000D02*
X150495000Y-49403000D01*
X119126000Y-88011000D02*
X119126000Y-88138000D01*
X108966000Y-93980000D02*
X108331000Y-94615000D01*
X150495000Y-49403000D02*
X150622000Y-49403000D01*
%TO.N,3V3*%
D19*
X143637000Y-52197000D02*
X149225000Y-52197000D01*
D17*
X110896400Y-75158600D02*
X109474000Y-76581000D01*
X113106200Y-86283800D02*
X108077000Y-91313000D01*
D19*
X154178000Y-52197000D02*
X149225000Y-52197000D01*
D17*
X109474000Y-76581000D02*
X116332000Y-76581000D01*
X131318000Y-76581000D02*
X116332000Y-76581000D01*
X106807000Y-50927000D02*
X110896400Y-55016400D01*
X98425000Y-63246000D02*
X98425000Y-66421000D01*
X95504000Y-76581000D02*
X109474000Y-76581000D01*
X143510000Y-64389000D02*
X131318000Y-76581000D01*
X98552000Y-69088000D02*
X98425000Y-68961000D01*
D16*
X66040000Y-51308000D02*
X64770000Y-50038000D01*
D17*
X108077000Y-91313000D02*
X104775000Y-91313000D01*
X110896400Y-55016400D02*
X110896400Y-75158600D01*
X106807000Y-46024800D02*
X106807000Y-50927000D01*
D20*
X84378800Y-76098400D02*
X67462400Y-76098400D01*
D17*
X98552000Y-60960000D02*
X98552000Y-58166000D01*
X98425000Y-66421000D02*
X98552000Y-66548000D01*
X98552000Y-72009000D02*
X98552000Y-69088000D01*
D16*
X64770000Y-50038000D02*
X59309000Y-50038000D01*
D17*
X98552000Y-58166000D02*
X98171000Y-57785000D01*
%TO.N,Net-(U2-Y6)*%
D16*
X164084000Y-86106000D02*
X164084000Y-144018000D01*
%TO.N,5V*%
D17*
X92252800Y-71831200D02*
X92252800Y-69497200D01*
X145923000Y-63246000D02*
X131572000Y-77597000D01*
X92252800Y-69497200D02*
X93289500Y-68460500D01*
X131572000Y-77597000D02*
X86487000Y-77597000D01*
X86487000Y-77597000D02*
X92252800Y-71831200D01*
X70866000Y-77597000D02*
X86487000Y-77597000D01*
%TO.N,Net-(U2-Y3)*%
D16*
X106172000Y-144018000D02*
X106172000Y-124714000D01*
%TO.N,KEY_4*%
X141884400Y-81991200D02*
X141884400Y-142213600D01*
X141884400Y-142213600D02*
X141478000Y-142620000D01*
%TO.N,KEY_1*%
X127685800Y-85725000D02*
X139446000Y-85725000D01*
X102108000Y-86741000D02*
X103403400Y-85445600D01*
X123139200Y-85445600D02*
X124155200Y-84429600D01*
X126390400Y-84429600D02*
X127685800Y-85725000D01*
X103403400Y-85445600D02*
X123139200Y-85445600D01*
X124155200Y-84429600D02*
X126390400Y-84429600D01*
%TO.N,KEY_2*%
X140208000Y-81991200D02*
X140208000Y-103886000D01*
X122301000Y-104902000D02*
X123952000Y-103251000D01*
X102489000Y-104902000D02*
X122301000Y-104902000D01*
X140208000Y-103886000D02*
X139192000Y-104902000D01*
%TO.N,Net-(U2-Y5)*%
X144780000Y-86106000D02*
X144780000Y-144018000D01*
%TO.N,Net-(U2-Y1)*%
X67564000Y-144018000D02*
X67564000Y-86106000D01*
%TO.N,Net-(U2-Y2)*%
X86868000Y-86106000D02*
X86868000Y-144018000D01*
%TO.N,Net-(U2-Y0)*%
X48260000Y-86106000D02*
X48260000Y-144018000D01*
%TO.N,ENCOD_B*%
D20*
X109667500Y-51495500D02*
X110421212Y-51495500D01*
X156037000Y-61803000D02*
X156210000Y-61630000D01*
X120728712Y-61803000D02*
X156037000Y-61803000D01*
X110421212Y-51495500D02*
X120728712Y-61803000D01*
%TO.N,Net-(U2-Y4)*%
D16*
X125476000Y-144018000D02*
X125476000Y-86106000D01*
%TO.N,PROG_N*%
D20*
X134819999Y-51660001D02*
X134620000Y-51860000D01*
X137922000Y-52705000D02*
X136877001Y-51660001D01*
X136877001Y-51660001D02*
X134819999Y-51660001D01*
%TO.N,PROG_P*%
X134819999Y-51209999D02*
X134620000Y-51010000D01*
X137922000Y-50165000D02*
X136877001Y-51209999D01*
X136877001Y-51209999D02*
X134819999Y-51209999D01*
%TO.N,HAND_INT*%
X128016000Y-58674000D02*
X133292314Y-58674000D01*
X141751000Y-57696685D02*
X141751000Y-52813000D01*
X141751000Y-52813000D02*
X145161000Y-49403000D01*
X134454314Y-59836000D02*
X139611686Y-59836000D01*
X133292314Y-58674000D02*
X134454314Y-59836000D01*
X145161000Y-49403000D02*
X148971000Y-49403000D01*
X139611686Y-59836000D02*
X141751000Y-57696685D01*
%TO.N,KNOB_1*%
X67151429Y-60293429D02*
X67151429Y-46208771D01*
X66649600Y-76809600D02*
X66649600Y-75336400D01*
X68275200Y-73761600D02*
X68376800Y-73660000D01*
X67151429Y-46208771D02*
X67157600Y-46202600D01*
X68376800Y-61518800D02*
X67151429Y-60293429D01*
X123992000Y-79100400D02*
X68940400Y-79100400D01*
X67157600Y-46202600D02*
X64770000Y-43815000D01*
X68940400Y-79100400D02*
X66649600Y-76809600D01*
X124330000Y-78762400D02*
X123992000Y-79100400D01*
X66649600Y-75336400D02*
X68224400Y-73761600D01*
X68224400Y-73761600D02*
X68275200Y-73761600D01*
%TO.N,MOTOR_ALR*%
D16*
X101922500Y-55880000D02*
X101928000Y-55880000D01*
X101854000Y-55880000D02*
X104140000Y-53594000D01*
X101801000Y-56001500D02*
X101922500Y-55880000D01*
%TO.N,STEP_DIR*%
X104640000Y-59698000D02*
X104640000Y-64651000D01*
X104640000Y-64651000D02*
X101854000Y-67437000D01*
X106934000Y-57404000D02*
X104640000Y-59698000D01*
%TO.N,SCREEN_CLK*%
D20*
X133731000Y-47625000D02*
X137541000Y-43815000D01*
X130175000Y-47625000D02*
X133731000Y-47625000D01*
X128524000Y-45974000D02*
X130175000Y-47625000D01*
%TO.N,SCREEN_SDA*%
X138538000Y-48025000D02*
X140081000Y-46482000D01*
X140081000Y-46482000D02*
X140081000Y-43815000D01*
X128524000Y-49784000D02*
X130283000Y-48025000D01*
X130283000Y-48025000D02*
X138538000Y-48025000D01*
%TO.N,ENCOD_Z*%
X154994000Y-61376000D02*
X155194000Y-61176000D01*
X109601000Y-47244000D02*
X110109000Y-47752000D01*
X110109000Y-47752000D02*
X110109000Y-50296576D01*
X110109000Y-50296576D02*
X121188424Y-61376000D01*
X121188424Y-61376000D02*
X154994000Y-61376000D01*
%TO.N,MOTOR_EN*%
D16*
X105460800Y-58235148D02*
X105460800Y-53797200D01*
X101854000Y-61849000D02*
X101854000Y-61841948D01*
X101854000Y-61841948D02*
X105460800Y-58235148D01*
X105460800Y-53797200D02*
X106426000Y-52832000D01*
%TO.N,ENCOD_A*%
D20*
X110998000Y-52959000D02*
X120269000Y-62230000D01*
X120269000Y-62230000D02*
X157226000Y-62230000D01*
X157226000Y-62230000D02*
X157353000Y-62103000D01*
%TO.N,HAND_DIR*%
X134620000Y-59436000D02*
X139446000Y-59436000D01*
X130048000Y-54864000D02*
X134620000Y-59436000D01*
X141351000Y-52324000D02*
X143637000Y-50038000D01*
X139446000Y-59436000D02*
X141351000Y-57531000D01*
X129286000Y-54864000D02*
X130048000Y-54864000D01*
X129284144Y-54865856D02*
X129286000Y-54864000D01*
X141351000Y-57531000D02*
X141351000Y-52324000D01*
%TO.N,MOTOR_STP*%
D16*
X109982000Y-64897000D02*
X101854000Y-73025000D01*
X109601000Y-56134000D02*
X109982000Y-56515000D01*
X109982000Y-56515000D02*
X109982000Y-64897000D01*
%TO.N,KNOB_2*%
D20*
X79756000Y-43815000D02*
X79095600Y-44475400D01*
X79095600Y-56845200D02*
X79349600Y-57099200D01*
X79349600Y-57099200D02*
X79349600Y-62941200D01*
X79095600Y-44475400D02*
X79095600Y-56845200D01*
X108712000Y-78486000D02*
X101244400Y-78486000D01*
%TD*%
%TA.AperFunction,Conductor*%
%TO.N,GND*%
G36*
X45474058Y-42800061D02*
G01*
X45520263Y-42806144D01*
X45581296Y-42814179D01*
X45612561Y-42822556D01*
X45704915Y-42860810D01*
X45732949Y-42876996D01*
X45812258Y-42937853D01*
X45835146Y-42960741D01*
X45896003Y-43040050D01*
X45912189Y-43068085D01*
X45950442Y-43160437D01*
X45958820Y-43191703D01*
X45972939Y-43298941D01*
X45974000Y-43315127D01*
X45974000Y-46101000D01*
X44196000Y-46101000D01*
X49467698Y-53086000D01*
X51859793Y-53086000D01*
X52070000Y-53276500D01*
X52070000Y-58928000D01*
X43442127Y-58928000D01*
X43425941Y-58926939D01*
X43318703Y-58912820D01*
X43287437Y-58904442D01*
X43195085Y-58866189D01*
X43167050Y-58850003D01*
X43087741Y-58789146D01*
X43064853Y-58766258D01*
X43003996Y-58686949D01*
X42987810Y-58658914D01*
X42949557Y-58566562D01*
X42941179Y-58535295D01*
X42927061Y-58428057D01*
X42926000Y-58411872D01*
X42926000Y-43315127D01*
X42927061Y-43298942D01*
X42941179Y-43191704D01*
X42949556Y-43160440D01*
X42987812Y-43068081D01*
X43003996Y-43040050D01*
X43064853Y-42960741D01*
X43087741Y-42937853D01*
X43167050Y-42876996D01*
X43195081Y-42860812D01*
X43287440Y-42822556D01*
X43318701Y-42814179D01*
X43394241Y-42804234D01*
X43425942Y-42800061D01*
X43442127Y-42799000D01*
X45457873Y-42799000D01*
X45474058Y-42800061D01*
G37*
%TD.AperFunction*%
%TD*%
%TA.AperFunction,Conductor*%
%TO.N,GND*%
G36*
X85923956Y-42945685D02*
G01*
X85969711Y-42998489D01*
X85979655Y-43067647D01*
X85967402Y-43106295D01*
X85870444Y-43296585D01*
X85804753Y-43498760D01*
X85771500Y-43708713D01*
X85771500Y-43921286D01*
X85804753Y-44131239D01*
X85870444Y-44333414D01*
X85966951Y-44522820D01*
X86091890Y-44694786D01*
X86242213Y-44845109D01*
X86414179Y-44970048D01*
X86414181Y-44970049D01*
X86414184Y-44970051D01*
X86603588Y-45066557D01*
X86805757Y-45132246D01*
X87015713Y-45165500D01*
X87015714Y-45165500D01*
X87228286Y-45165500D01*
X87228287Y-45165500D01*
X87438243Y-45132246D01*
X87640412Y-45066557D01*
X87829816Y-44970051D01*
X87851789Y-44954086D01*
X88001786Y-44845109D01*
X88001788Y-44845106D01*
X88001792Y-44845104D01*
X88152104Y-44694792D01*
X88152106Y-44694788D01*
X88152109Y-44694786D01*
X88277048Y-44522820D01*
X88277047Y-44522820D01*
X88277051Y-44522816D01*
X88281514Y-44514054D01*
X88329488Y-44463259D01*
X88397308Y-44446463D01*
X88463444Y-44468999D01*
X88502486Y-44514056D01*
X88506951Y-44522820D01*
X88631890Y-44694786D01*
X88782213Y-44845109D01*
X88954179Y-44970048D01*
X88954181Y-44970049D01*
X88954184Y-44970051D01*
X89143588Y-45066557D01*
X89345757Y-45132246D01*
X89555713Y-45165500D01*
X89555714Y-45165500D01*
X89768286Y-45165500D01*
X89768287Y-45165500D01*
X89978243Y-45132246D01*
X90180412Y-45066557D01*
X90369816Y-44970051D01*
X90391789Y-44954086D01*
X90541786Y-44845109D01*
X90541788Y-44845106D01*
X90541792Y-44845104D01*
X90692104Y-44694792D01*
X90692106Y-44694788D01*
X90692109Y-44694786D01*
X90817048Y-44522820D01*
X90817047Y-44522820D01*
X90817051Y-44522816D01*
X90821514Y-44514054D01*
X90869488Y-44463259D01*
X90937308Y-44446463D01*
X91003444Y-44468999D01*
X91042486Y-44514056D01*
X91046951Y-44522820D01*
X91171890Y-44694786D01*
X91322213Y-44845109D01*
X91494179Y-44970048D01*
X91494181Y-44970049D01*
X91494184Y-44970051D01*
X91683588Y-45066557D01*
X91885757Y-45132246D01*
X92095713Y-45165500D01*
X92095714Y-45165500D01*
X92308286Y-45165500D01*
X92308287Y-45165500D01*
X92518243Y-45132246D01*
X92720412Y-45066557D01*
X92909816Y-44970051D01*
X92931789Y-44954086D01*
X93081786Y-44845109D01*
X93081788Y-44845106D01*
X93081792Y-44845104D01*
X93232104Y-44694792D01*
X93232106Y-44694788D01*
X93232109Y-44694786D01*
X93357048Y-44522820D01*
X93357047Y-44522820D01*
X93357051Y-44522816D01*
X93361514Y-44514054D01*
X93409488Y-44463259D01*
X93477308Y-44446463D01*
X93543444Y-44468999D01*
X93582486Y-44514056D01*
X93586951Y-44522820D01*
X93711890Y-44694786D01*
X93862213Y-44845109D01*
X94034179Y-44970048D01*
X94034181Y-44970049D01*
X94034184Y-44970051D01*
X94107000Y-45007152D01*
X94107000Y-55631029D01*
X100838000Y-55697671D01*
X100838000Y-74414128D01*
X100836940Y-74430309D01*
X100822830Y-74537515D01*
X100814457Y-74568772D01*
X100776227Y-74661101D01*
X100760052Y-74689129D01*
X100699232Y-74768426D01*
X100676355Y-74791314D01*
X100597091Y-74852172D01*
X100569072Y-74868361D01*
X100476760Y-74906639D01*
X100445506Y-74915028D01*
X100338308Y-74929191D01*
X100322128Y-74930259D01*
X90605105Y-74935143D01*
X90538056Y-74915492D01*
X90492275Y-74862711D01*
X90482296Y-74793558D01*
X90511289Y-74729987D01*
X90517338Y-74723487D01*
X92764035Y-72476789D01*
X92764040Y-72476786D01*
X92774243Y-72466582D01*
X92774245Y-72466582D01*
X92888182Y-72352645D01*
X92888418Y-72352290D01*
X92924036Y-72298984D01*
X92924038Y-72298980D01*
X92972466Y-72226505D01*
X92977703Y-72218668D01*
X93039365Y-72069802D01*
X93070801Y-71911765D01*
X93070801Y-71750634D01*
X93070801Y-71745524D01*
X93070800Y-71745498D01*
X93070800Y-69887389D01*
X93090485Y-69820350D01*
X93107119Y-69799708D01*
X93865259Y-69041568D01*
X97606999Y-69041568D01*
X97638434Y-69199595D01*
X97638436Y-69199603D01*
X97700097Y-69348468D01*
X97700100Y-69348474D01*
X97713100Y-69367929D01*
X97733980Y-69434606D01*
X97734000Y-69436822D01*
X97734000Y-72089570D01*
X97765433Y-72247594D01*
X97765435Y-72247602D01*
X97827096Y-72396466D01*
X97916619Y-72530447D01*
X98030552Y-72644380D01*
X98164533Y-72733903D01*
X98238965Y-72764733D01*
X98313398Y-72795565D01*
X98471429Y-72826999D01*
X98471433Y-72827000D01*
X98471434Y-72827000D01*
X98632567Y-72827000D01*
X98632568Y-72826999D01*
X98790602Y-72795565D01*
X98939468Y-72733902D01*
X99073445Y-72644382D01*
X99187382Y-72530445D01*
X99276902Y-72396468D01*
X99338565Y-72247602D01*
X99370000Y-72089566D01*
X99370000Y-69007434D01*
X99338565Y-68849398D01*
X99285962Y-68722404D01*
X99276903Y-68700533D01*
X99187381Y-68566554D01*
X99161893Y-68541066D01*
X99073445Y-68452618D01*
X98946445Y-68325618D01*
X98946444Y-68325617D01*
X98946443Y-68325616D01*
X98812471Y-68236098D01*
X98812468Y-68236097D01*
X98663603Y-68174436D01*
X98663595Y-68174434D01*
X98505568Y-68143000D01*
X98505566Y-68143000D01*
X98344434Y-68143000D01*
X98344432Y-68143000D01*
X98186404Y-68174434D01*
X98186396Y-68174436D01*
X98037531Y-68236097D01*
X98037528Y-68236098D01*
X97903555Y-68325617D01*
X97903551Y-68325620D01*
X97789620Y-68439551D01*
X97789617Y-68439555D01*
X97700098Y-68573528D01*
X97700097Y-68573531D01*
X97638436Y-68722396D01*
X97638434Y-68722404D01*
X97607000Y-68880431D01*
X97607000Y-68880434D01*
X97607000Y-69041566D01*
X97607000Y-69041568D01*
X97606999Y-69041568D01*
X93865259Y-69041568D01*
X93924880Y-68981947D01*
X93924882Y-68981945D01*
X94014402Y-68847968D01*
X94076064Y-68699102D01*
X94107500Y-68541066D01*
X94107500Y-68379935D01*
X94107500Y-68379932D01*
X94076065Y-68221903D01*
X94076064Y-68221902D01*
X94076064Y-68221898D01*
X94056404Y-68174434D01*
X94014405Y-68073038D01*
X94014398Y-68073025D01*
X93924882Y-67939056D01*
X93924879Y-67939052D01*
X93810947Y-67825120D01*
X93810943Y-67825117D01*
X93676974Y-67735601D01*
X93676961Y-67735594D01*
X93528106Y-67673937D01*
X93528096Y-67673934D01*
X93370067Y-67642500D01*
X93370065Y-67642500D01*
X93208934Y-67642500D01*
X93208932Y-67642500D01*
X93050903Y-67673934D01*
X93050893Y-67673937D01*
X92902035Y-67735595D01*
X92768052Y-67825119D01*
X91617420Y-68975751D01*
X91617417Y-68975755D01*
X91527900Y-69109726D01*
X91527898Y-69109730D01*
X91527897Y-69109732D01*
X91510910Y-69150744D01*
X91466235Y-69258597D01*
X91466233Y-69258605D01*
X91434800Y-69416629D01*
X91434800Y-71441010D01*
X91415115Y-71508049D01*
X91398481Y-71528691D01*
X88027007Y-74900164D01*
X87965684Y-74933649D01*
X87939388Y-74936483D01*
X81738993Y-74939601D01*
X81727367Y-74939061D01*
X81670554Y-74933739D01*
X81669172Y-74930408D01*
X81663258Y-63165429D01*
X97607000Y-63165429D01*
X97607000Y-66501570D01*
X97638433Y-66659594D01*
X97638436Y-66659606D01*
X97700093Y-66808461D01*
X97700100Y-66808474D01*
X97789617Y-66942444D01*
X97789620Y-66942448D01*
X98030552Y-67183380D01*
X98164535Y-67272904D01*
X98313393Y-67334562D01*
X98313398Y-67334564D01*
X98313402Y-67334564D01*
X98313403Y-67334565D01*
X98471431Y-67366000D01*
X98471434Y-67366000D01*
X98632568Y-67366000D01*
X98738885Y-67344851D01*
X98790602Y-67334564D01*
X98939468Y-67272902D01*
X99073444Y-67183382D01*
X99187382Y-67069444D01*
X99276902Y-66935468D01*
X99338564Y-66786602D01*
X99363826Y-66659606D01*
X99370000Y-66628568D01*
X99370000Y-66467431D01*
X99338565Y-66309403D01*
X99338564Y-66309402D01*
X99338564Y-66309398D01*
X99276902Y-66160532D01*
X99263895Y-66141066D01*
X99243020Y-66074389D01*
X99243000Y-66072178D01*
X99243000Y-63165433D01*
X99242999Y-63165429D01*
X99211566Y-63007405D01*
X99211565Y-63007398D01*
X99180733Y-62932965D01*
X99149903Y-62858533D01*
X99060380Y-62724552D01*
X98946447Y-62610619D01*
X98812466Y-62521096D01*
X98663602Y-62459435D01*
X98663594Y-62459433D01*
X98505570Y-62428000D01*
X98505566Y-62428000D01*
X98344434Y-62428000D01*
X98344429Y-62428000D01*
X98186405Y-62459433D01*
X98186397Y-62459435D01*
X98037533Y-62521096D01*
X97903552Y-62610619D01*
X97789619Y-62724552D01*
X97700096Y-62858533D01*
X97638435Y-63007397D01*
X97638433Y-63007405D01*
X97607000Y-63165429D01*
X81663258Y-63165429D01*
X81661000Y-58674000D01*
X81661000Y-57865568D01*
X97352999Y-57865568D01*
X97384434Y-58023595D01*
X97384436Y-58023603D01*
X97446097Y-58172468D01*
X97446098Y-58172471D01*
X97535616Y-58306443D01*
X97535617Y-58306444D01*
X97535618Y-58306445D01*
X97697682Y-58468509D01*
X97731166Y-58529831D01*
X97734000Y-58556189D01*
X97734000Y-61040570D01*
X97765433Y-61198594D01*
X97765435Y-61198602D01*
X97827096Y-61347466D01*
X97916619Y-61481447D01*
X98030552Y-61595380D01*
X98164533Y-61684903D01*
X98238965Y-61715733D01*
X98313398Y-61746565D01*
X98471429Y-61777999D01*
X98471433Y-61778000D01*
X98471434Y-61778000D01*
X98632567Y-61778000D01*
X98632568Y-61777999D01*
X98790602Y-61746565D01*
X98939468Y-61684902D01*
X99073445Y-61595382D01*
X99187382Y-61481445D01*
X99276902Y-61347468D01*
X99338565Y-61198602D01*
X99370000Y-61040566D01*
X99370000Y-58085434D01*
X99338565Y-57927398D01*
X99279228Y-57784149D01*
X99277584Y-57779551D01*
X99187382Y-57644554D01*
X98692448Y-57149620D01*
X98692444Y-57149617D01*
X98558471Y-57060098D01*
X98558468Y-57060097D01*
X98409603Y-56998436D01*
X98409595Y-56998434D01*
X98251568Y-56967000D01*
X98251566Y-56967000D01*
X98090434Y-56967000D01*
X98090432Y-56967000D01*
X97932404Y-56998434D01*
X97932396Y-56998436D01*
X97783531Y-57060097D01*
X97783528Y-57060098D01*
X97649555Y-57149617D01*
X97649551Y-57149620D01*
X97535620Y-57263551D01*
X97535617Y-57263555D01*
X97446098Y-57397528D01*
X97446097Y-57397531D01*
X97384436Y-57546396D01*
X97384434Y-57546404D01*
X97353000Y-57704431D01*
X97353000Y-57704434D01*
X97353000Y-57865566D01*
X97353000Y-57865568D01*
X97352999Y-57865568D01*
X81661000Y-57865568D01*
X81661000Y-43442127D01*
X81662061Y-43425942D01*
X81676179Y-43318704D01*
X81684556Y-43287440D01*
X81722812Y-43195081D01*
X81738996Y-43167050D01*
X81799853Y-43087741D01*
X81822741Y-43064853D01*
X81902050Y-43003996D01*
X81930081Y-42987812D01*
X82022440Y-42949556D01*
X82053701Y-42941179D01*
X82129241Y-42931234D01*
X82160942Y-42927061D01*
X82177127Y-42926000D01*
X85856917Y-42926000D01*
X85923956Y-42945685D01*
G37*
%TD.AperFunction*%
%TD*%
%TA.AperFunction,Conductor*%
%TO.N,GND*%
G36*
X66493968Y-53105685D02*
G01*
X66539723Y-53158489D01*
X66550929Y-53210000D01*
X66550929Y-60206759D01*
X66550928Y-60206777D01*
X66550928Y-60372483D01*
X66550927Y-60372483D01*
X66591852Y-60525214D01*
X66620787Y-60575329D01*
X66620788Y-60575333D01*
X66620789Y-60575333D01*
X66670908Y-60662143D01*
X66670910Y-60662146D01*
X66789778Y-60781014D01*
X66789784Y-60781019D01*
X67542225Y-61533460D01*
X67575710Y-61594783D01*
X67576161Y-61596949D01*
X67607061Y-61752291D01*
X67607064Y-61752301D01*
X67667402Y-61897972D01*
X67667409Y-61897985D01*
X67755010Y-62029088D01*
X67755013Y-62029092D01*
X67866507Y-62140586D01*
X67866511Y-62140589D01*
X67997614Y-62228190D01*
X67997627Y-62228197D01*
X68143298Y-62288535D01*
X68143303Y-62288537D01*
X68297953Y-62319299D01*
X68297956Y-62319300D01*
X68297958Y-62319300D01*
X68455644Y-62319300D01*
X68455645Y-62319299D01*
X68610297Y-62288537D01*
X68755979Y-62228194D01*
X68887089Y-62140589D01*
X68998589Y-62029089D01*
X69086194Y-61897979D01*
X69146537Y-61752297D01*
X69177300Y-61597642D01*
X69177300Y-61439958D01*
X69177300Y-61439955D01*
X69177299Y-61439953D01*
X69146538Y-61285310D01*
X69146537Y-61285303D01*
X69146535Y-61285298D01*
X69086197Y-61139627D01*
X69086190Y-61139614D01*
X68998589Y-61008511D01*
X68998586Y-61008507D01*
X68887092Y-60897013D01*
X68887088Y-60897010D01*
X68755985Y-60809409D01*
X68755972Y-60809402D01*
X68610301Y-60749064D01*
X68610291Y-60749061D01*
X68454949Y-60718161D01*
X68393038Y-60685776D01*
X68391460Y-60684225D01*
X67788248Y-60081013D01*
X67754763Y-60019690D01*
X67751929Y-59993332D01*
X67751929Y-53210000D01*
X67771614Y-53142961D01*
X67824418Y-53097206D01*
X67875929Y-53086000D01*
X78371100Y-53086000D01*
X78438139Y-53105685D01*
X78483894Y-53158489D01*
X78495100Y-53210000D01*
X78495100Y-56758530D01*
X78495099Y-56758548D01*
X78495099Y-56924254D01*
X78495098Y-56924254D01*
X78536023Y-57076985D01*
X78564958Y-57127100D01*
X78564959Y-57127104D01*
X78564960Y-57127104D01*
X78615079Y-57213914D01*
X78615081Y-57213917D01*
X78712781Y-57311617D01*
X78746266Y-57372940D01*
X78749100Y-57399298D01*
X78749100Y-62361434D01*
X78729415Y-62428473D01*
X78728202Y-62430325D01*
X78640209Y-62562014D01*
X78640202Y-62562027D01*
X78579864Y-62707698D01*
X78579861Y-62707710D01*
X78549100Y-62862353D01*
X78549100Y-63020046D01*
X78579861Y-63174689D01*
X78579864Y-63174701D01*
X78640202Y-63320372D01*
X78640209Y-63320385D01*
X78727810Y-63451488D01*
X78727813Y-63451492D01*
X78839307Y-63562986D01*
X78839311Y-63562989D01*
X78970414Y-63650590D01*
X78970427Y-63650597D01*
X79116098Y-63710935D01*
X79116103Y-63710937D01*
X79270753Y-63741699D01*
X79270756Y-63741700D01*
X79270758Y-63741700D01*
X79428444Y-63741700D01*
X79428445Y-63741699D01*
X79583097Y-63710937D01*
X79728779Y-63650594D01*
X79859889Y-63562989D01*
X79971389Y-63451489D01*
X80058994Y-63320379D01*
X80119337Y-63174697D01*
X80150100Y-63020042D01*
X80150100Y-62862358D01*
X80150100Y-62862355D01*
X80150099Y-62862353D01*
X80119338Y-62707710D01*
X80119337Y-62707703D01*
X80119335Y-62707698D01*
X80058997Y-62562027D01*
X80058990Y-62562014D01*
X79970998Y-62430325D01*
X79950120Y-62363647D01*
X79950100Y-62361434D01*
X79950100Y-57020145D01*
X79950100Y-57020143D01*
X79924408Y-56924257D01*
X79909177Y-56867415D01*
X79880239Y-56817295D01*
X79830120Y-56730484D01*
X79732418Y-56632782D01*
X79698934Y-56571459D01*
X79696100Y-56545101D01*
X79696100Y-53210000D01*
X79715785Y-53142961D01*
X79768589Y-53097206D01*
X79820100Y-53086000D01*
X81661000Y-53086000D01*
X81661000Y-58674000D01*
X81669167Y-74921178D01*
X78047626Y-74923506D01*
X68204845Y-74929832D01*
X68137793Y-74910191D01*
X68092004Y-74857416D01*
X68082016Y-74788264D01*
X68111000Y-74724690D01*
X68117074Y-74718160D01*
X68338417Y-74496819D01*
X68399740Y-74463334D01*
X68426098Y-74460500D01*
X68455644Y-74460500D01*
X68455645Y-74460499D01*
X68610297Y-74429737D01*
X68755979Y-74369394D01*
X68887089Y-74281789D01*
X68998589Y-74170289D01*
X69086194Y-74039179D01*
X69146537Y-73893497D01*
X69177300Y-73738842D01*
X69177300Y-73581158D01*
X69177300Y-73581155D01*
X69177299Y-73581153D01*
X69146538Y-73426510D01*
X69146538Y-73426508D01*
X69146537Y-73426503D01*
X69146535Y-73426498D01*
X69086197Y-73280827D01*
X69086190Y-73280814D01*
X68998589Y-73149711D01*
X68998586Y-73149707D01*
X68887092Y-73038213D01*
X68887088Y-73038210D01*
X68755985Y-72950609D01*
X68755972Y-72950602D01*
X68610301Y-72890264D01*
X68610289Y-72890261D01*
X68455645Y-72859500D01*
X68455642Y-72859500D01*
X68297958Y-72859500D01*
X68297955Y-72859500D01*
X68143310Y-72890261D01*
X68143298Y-72890264D01*
X67997627Y-72950602D01*
X67997614Y-72950609D01*
X67866511Y-73038210D01*
X67866507Y-73038213D01*
X67755013Y-73149707D01*
X67755010Y-73149711D01*
X67667409Y-73280814D01*
X67667402Y-73280827D01*
X67607064Y-73426498D01*
X67607061Y-73426508D01*
X67588776Y-73518433D01*
X67556391Y-73580344D01*
X67554840Y-73581922D01*
X66589117Y-74547647D01*
X66280886Y-74855878D01*
X66280884Y-74855880D01*
X66267898Y-74868866D01*
X66241928Y-74894834D01*
X66213800Y-74910191D01*
X66180605Y-74928316D01*
X66154330Y-74931149D01*
X52346177Y-74940025D01*
X52329992Y-74938975D01*
X52222741Y-74924926D01*
X52191471Y-74916569D01*
X52099084Y-74878371D01*
X52071043Y-74862205D01*
X52008695Y-74814427D01*
X51991698Y-74801402D01*
X51968795Y-74778528D01*
X51907889Y-74699257D01*
X51891687Y-74671236D01*
X51853372Y-74578905D01*
X51844974Y-74547647D01*
X51830784Y-74440402D01*
X51829714Y-74424238D01*
X51820081Y-59435673D01*
X51819755Y-58928000D01*
X52070000Y-58928000D01*
X52070000Y-53276500D01*
X51859793Y-53086000D01*
X58166000Y-53086000D01*
X66426929Y-53086000D01*
X66493968Y-53105685D01*
G37*
%TD.AperFunction*%
%TD*%
%TA.AperFunction,Conductor*%
%TO.N,GND*%
G36*
X57666058Y-46102061D02*
G01*
X57712263Y-46108144D01*
X57773296Y-46116179D01*
X57804561Y-46124556D01*
X57896915Y-46162810D01*
X57924949Y-46178996D01*
X58004258Y-46239853D01*
X58027146Y-46262741D01*
X58088003Y-46342050D01*
X58104189Y-46370085D01*
X58142442Y-46462437D01*
X58150820Y-46493703D01*
X58164939Y-46600941D01*
X58166000Y-46617127D01*
X58166000Y-53086000D01*
X49467698Y-53086000D01*
X44196000Y-46101000D01*
X45974000Y-46101000D01*
X57649873Y-46101000D01*
X57666058Y-46102061D01*
G37*
%TD.AperFunction*%
%TD*%
%TA.AperFunction,Conductor*%
%TO.N,GND*%
G36*
X176411058Y-49277061D02*
G01*
X176457263Y-49283144D01*
X176518296Y-49291179D01*
X176549561Y-49299556D01*
X176641915Y-49337810D01*
X176669949Y-49353996D01*
X176749258Y-49414853D01*
X176772146Y-49437741D01*
X176833003Y-49517050D01*
X176849189Y-49545085D01*
X176887442Y-49637437D01*
X176895820Y-49668703D01*
X176909939Y-49775941D01*
X176911000Y-49792127D01*
X176911000Y-75277472D01*
X176909939Y-75293657D01*
X176909939Y-75293658D01*
X176895820Y-75400896D01*
X176887442Y-75432162D01*
X176849189Y-75524514D01*
X176833003Y-75552549D01*
X176772146Y-75631858D01*
X176749258Y-75654746D01*
X176669949Y-75715603D01*
X176641914Y-75731789D01*
X176549562Y-75770042D01*
X176518296Y-75778420D01*
X176411059Y-75792539D01*
X176394873Y-75793600D01*
X144661127Y-75793600D01*
X144644941Y-75792539D01*
X144537703Y-75778420D01*
X144506437Y-75770042D01*
X144414085Y-75731789D01*
X144386050Y-75715603D01*
X144306741Y-75654746D01*
X144283853Y-75631858D01*
X144222996Y-75552549D01*
X144206810Y-75524514D01*
X144168557Y-75432162D01*
X144160179Y-75400895D01*
X144146061Y-75293657D01*
X144145000Y-75277472D01*
X144145000Y-66232188D01*
X144164685Y-66165149D01*
X144181319Y-66144507D01*
X146558379Y-63767447D01*
X146558378Y-63767447D01*
X146558382Y-63767444D01*
X146647903Y-63633468D01*
X146709564Y-63484602D01*
X146741000Y-63326566D01*
X146741000Y-63165434D01*
X146741000Y-63165431D01*
X146709565Y-63007404D01*
X146709564Y-63007400D01*
X146709564Y-63007398D01*
X146707307Y-63001950D01*
X146699839Y-62932483D01*
X146731114Y-62870004D01*
X146791203Y-62834352D01*
X146821869Y-62830500D01*
X156992869Y-62830500D01*
X157040320Y-62839938D01*
X157119503Y-62872737D01*
X157119506Y-62872737D01*
X157119511Y-62872739D01*
X157274153Y-62903499D01*
X157274156Y-62903500D01*
X157274158Y-62903500D01*
X157431844Y-62903500D01*
X157431845Y-62903499D01*
X157586497Y-62872737D01*
X157732179Y-62812394D01*
X157863289Y-62724789D01*
X157974789Y-62613289D01*
X158062394Y-62482179D01*
X158122737Y-62336497D01*
X158153500Y-62181842D01*
X158153500Y-62024158D01*
X158153500Y-62024155D01*
X158153499Y-62024153D01*
X158122738Y-61869510D01*
X158122737Y-61869503D01*
X158119333Y-61861284D01*
X158062397Y-61723827D01*
X158062390Y-61723814D01*
X157974789Y-61592711D01*
X157974786Y-61592707D01*
X157863292Y-61481213D01*
X157863288Y-61481210D01*
X157732185Y-61393609D01*
X157732172Y-61393602D01*
X157586501Y-61333264D01*
X157586489Y-61333261D01*
X157431845Y-61302500D01*
X157431842Y-61302500D01*
X157274158Y-61302500D01*
X157274155Y-61302500D01*
X157119511Y-61333260D01*
X157119506Y-61333262D01*
X157119504Y-61333262D01*
X157119503Y-61333263D01*
X157092405Y-61344487D01*
X157022936Y-61351954D01*
X156960457Y-61320678D01*
X156930394Y-61277378D01*
X156919392Y-61250817D01*
X156831789Y-61119711D01*
X156831786Y-61119707D01*
X156720292Y-61008213D01*
X156720288Y-61008210D01*
X156589185Y-60920609D01*
X156589172Y-60920602D01*
X156443501Y-60860264D01*
X156443489Y-60860261D01*
X156288845Y-60829500D01*
X156288842Y-60829500D01*
X156131158Y-60829500D01*
X156098818Y-60835932D01*
X156030650Y-60849492D01*
X155961058Y-60843264D01*
X155905881Y-60800400D01*
X155903357Y-60796765D01*
X155815789Y-60665711D01*
X155815786Y-60665707D01*
X155704292Y-60554213D01*
X155704288Y-60554210D01*
X155573185Y-60466609D01*
X155573172Y-60466602D01*
X155427501Y-60406264D01*
X155427489Y-60406261D01*
X155272845Y-60375500D01*
X155272842Y-60375500D01*
X155115158Y-60375500D01*
X155115155Y-60375500D01*
X154960510Y-60406261D01*
X154960498Y-60406264D01*
X154814827Y-60466602D01*
X154814814Y-60466609D01*
X154683711Y-60554210D01*
X154683707Y-60554213D01*
X154572213Y-60665707D01*
X154572207Y-60665715D01*
X154535675Y-60720390D01*
X154482063Y-60765196D01*
X154432573Y-60775500D01*
X144269000Y-60775500D01*
X144201961Y-60755815D01*
X144156206Y-60703011D01*
X144145000Y-60651500D01*
X144145000Y-53012000D01*
X144164685Y-52944961D01*
X144217489Y-52899206D01*
X144269000Y-52888000D01*
X148780677Y-52888000D01*
X148839509Y-52905275D01*
X148840447Y-52903521D01*
X148845815Y-52906390D01*
X148845821Y-52906394D01*
X148845827Y-52906396D01*
X148845828Y-52906397D01*
X148991498Y-52966735D01*
X148991503Y-52966737D01*
X149146153Y-52997499D01*
X149146156Y-52997500D01*
X149146158Y-52997500D01*
X149303844Y-52997500D01*
X149303845Y-52997499D01*
X149458497Y-52966737D01*
X149604179Y-52906394D01*
X149604188Y-52906387D01*
X149609553Y-52903521D01*
X149610705Y-52905676D01*
X149667131Y-52888019D01*
X149669323Y-52888000D01*
X153733677Y-52888000D01*
X153792509Y-52905275D01*
X153793447Y-52903521D01*
X153798815Y-52906390D01*
X153798821Y-52906394D01*
X153798827Y-52906396D01*
X153798828Y-52906397D01*
X153944498Y-52966735D01*
X153944503Y-52966737D01*
X154099153Y-52997499D01*
X154099156Y-52997500D01*
X154099158Y-52997500D01*
X154256844Y-52997500D01*
X154256845Y-52997499D01*
X154411497Y-52966737D01*
X154557179Y-52906394D01*
X154688289Y-52818789D01*
X154799789Y-52707289D01*
X154887394Y-52576179D01*
X154947737Y-52430497D01*
X154978500Y-52275842D01*
X154978500Y-52118158D01*
X154978500Y-52118155D01*
X154978499Y-52118153D01*
X154947738Y-51963510D01*
X154947737Y-51963503D01*
X154944333Y-51955284D01*
X154887397Y-51817827D01*
X154887390Y-51817814D01*
X154799789Y-51686711D01*
X154799786Y-51686707D01*
X154688292Y-51575213D01*
X154688288Y-51575210D01*
X154557185Y-51487609D01*
X154557172Y-51487602D01*
X154411501Y-51427264D01*
X154411489Y-51427261D01*
X154256845Y-51396500D01*
X154256842Y-51396500D01*
X154099158Y-51396500D01*
X154099155Y-51396500D01*
X153944510Y-51427261D01*
X153944498Y-51427264D01*
X153798828Y-51487602D01*
X153793447Y-51490479D01*
X153792294Y-51488323D01*
X153735869Y-51505981D01*
X153733677Y-51506000D01*
X149669323Y-51506000D01*
X149610490Y-51488724D01*
X149609553Y-51490479D01*
X149604181Y-51487607D01*
X149604179Y-51487606D01*
X149604176Y-51487605D01*
X149604171Y-51487602D01*
X149458501Y-51427264D01*
X149458489Y-51427261D01*
X149303845Y-51396500D01*
X149303842Y-51396500D01*
X149146158Y-51396500D01*
X149146155Y-51396500D01*
X148991510Y-51427261D01*
X148991498Y-51427264D01*
X148845828Y-51487602D01*
X148840447Y-51490479D01*
X148839294Y-51488323D01*
X148782869Y-51505981D01*
X148780677Y-51506000D01*
X144269000Y-51506000D01*
X144260314Y-51503449D01*
X144251353Y-51504738D01*
X144227312Y-51493759D01*
X144201961Y-51486315D01*
X144196033Y-51479474D01*
X144187797Y-51475713D01*
X144173507Y-51453478D01*
X144156206Y-51433511D01*
X144153918Y-51422996D01*
X144150023Y-51416935D01*
X144145000Y-51382000D01*
X144145000Y-51319596D01*
X144164685Y-51252557D01*
X144181319Y-51231915D01*
X145373416Y-50039819D01*
X145434739Y-50006334D01*
X145461097Y-50003500D01*
X148391234Y-50003500D01*
X148458273Y-50023185D01*
X148460125Y-50024398D01*
X148591814Y-50112390D01*
X148591827Y-50112397D01*
X148737498Y-50172735D01*
X148737503Y-50172737D01*
X148892153Y-50203499D01*
X148892156Y-50203500D01*
X148892158Y-50203500D01*
X149049844Y-50203500D01*
X149049845Y-50203499D01*
X149204497Y-50172737D01*
X149350179Y-50112394D01*
X149481289Y-50024789D01*
X149592789Y-49913289D01*
X149680394Y-49782179D01*
X149740737Y-49636497D01*
X149771500Y-49481842D01*
X149771500Y-49400000D01*
X149791185Y-49332961D01*
X149843989Y-49287206D01*
X149895500Y-49276000D01*
X176394873Y-49276000D01*
X176411058Y-49277061D01*
G37*
%TD.AperFunction*%
%TD*%
%TA.AperFunction,Conductor*%
%TO.N,GND*%
G36*
X101486097Y-42430185D02*
G01*
X101531852Y-42482989D01*
X101541796Y-42552147D01*
X101512771Y-42615703D01*
X101475353Y-42644985D01*
X101445979Y-42659951D01*
X101274013Y-42784890D01*
X101123690Y-42935213D01*
X100998751Y-43107179D01*
X100902244Y-43296585D01*
X100836553Y-43498760D01*
X100803300Y-43708713D01*
X100803300Y-43921286D01*
X100836553Y-44131239D01*
X100902244Y-44333414D01*
X100998751Y-44522820D01*
X101123690Y-44694786D01*
X101274013Y-44845109D01*
X101445979Y-44970048D01*
X101445981Y-44970049D01*
X101445984Y-44970051D01*
X101635388Y-45066557D01*
X101837557Y-45132246D01*
X102047513Y-45165500D01*
X102047514Y-45165500D01*
X102260086Y-45165500D01*
X102260087Y-45165500D01*
X102470043Y-45132246D01*
X102672212Y-45066557D01*
X102861616Y-44970051D01*
X102883589Y-44954086D01*
X103033586Y-44845109D01*
X103033588Y-44845106D01*
X103033592Y-44845104D01*
X103183904Y-44694792D01*
X103183906Y-44694788D01*
X103183909Y-44694786D01*
X103308848Y-44522820D01*
X103308847Y-44522820D01*
X103308851Y-44522816D01*
X103405357Y-44333412D01*
X103471046Y-44131243D01*
X103504300Y-43921287D01*
X103504300Y-43708713D01*
X103471046Y-43498757D01*
X103405357Y-43296588D01*
X103308851Y-43107184D01*
X103308849Y-43107181D01*
X103308848Y-43107179D01*
X103183909Y-42935213D01*
X103033586Y-42784890D01*
X102861620Y-42659951D01*
X102832247Y-42644985D01*
X102781451Y-42597011D01*
X102764656Y-42529190D01*
X102787193Y-42463055D01*
X102841908Y-42419603D01*
X102888542Y-42410500D01*
X118608516Y-42410500D01*
X118609253Y-42410716D01*
X118609992Y-42410509D01*
X118642722Y-42420544D01*
X118675555Y-42430185D01*
X118676057Y-42430764D01*
X118676792Y-42430990D01*
X118698905Y-42457132D01*
X118721310Y-42482989D01*
X118721584Y-42483943D01*
X118721915Y-42484335D01*
X118731454Y-42518312D01*
X118735909Y-42552147D01*
X118743939Y-42613142D01*
X118745000Y-42629327D01*
X118745000Y-55353734D01*
X118743926Y-55370021D01*
X118729630Y-55477917D01*
X118721147Y-55509366D01*
X118682424Y-55602202D01*
X118666045Y-55630357D01*
X118604483Y-55709905D01*
X118581336Y-55732824D01*
X118501182Y-55793596D01*
X118472866Y-55809696D01*
X118379652Y-55847498D01*
X118348120Y-55855669D01*
X118240092Y-55868895D01*
X118223795Y-55869808D01*
X116565185Y-55853385D01*
X116498344Y-55833038D01*
X116478732Y-55817072D01*
X110745819Y-50084159D01*
X110712334Y-50022836D01*
X110709500Y-49996478D01*
X110709500Y-47672945D01*
X110709500Y-47672943D01*
X110668577Y-47520216D01*
X110643916Y-47477501D01*
X110589524Y-47383290D01*
X110589521Y-47383286D01*
X110589520Y-47383284D01*
X110477716Y-47271480D01*
X110477715Y-47271479D01*
X110473385Y-47267149D01*
X110473374Y-47267139D01*
X110435574Y-47229339D01*
X110402089Y-47168016D01*
X110401638Y-47165849D01*
X110370738Y-47010510D01*
X110370737Y-47010503D01*
X110370735Y-47010498D01*
X110310397Y-46864827D01*
X110310390Y-46864814D01*
X110222789Y-46733711D01*
X110222786Y-46733707D01*
X110111292Y-46622213D01*
X110111288Y-46622210D01*
X109980185Y-46534609D01*
X109980172Y-46534602D01*
X109834501Y-46474264D01*
X109834489Y-46474261D01*
X109679845Y-46443500D01*
X109679842Y-46443500D01*
X109522158Y-46443500D01*
X109522155Y-46443500D01*
X109367510Y-46474261D01*
X109367498Y-46474264D01*
X109221827Y-46534602D01*
X109221814Y-46534609D01*
X109090711Y-46622210D01*
X109090707Y-46622213D01*
X108979213Y-46733707D01*
X108979210Y-46733711D01*
X108891609Y-46864814D01*
X108891602Y-46864827D01*
X108831264Y-47010498D01*
X108831261Y-47010510D01*
X108800500Y-47165153D01*
X108800500Y-47322846D01*
X108831261Y-47477489D01*
X108831264Y-47477501D01*
X108891602Y-47623172D01*
X108891609Y-47623185D01*
X108979210Y-47754288D01*
X108979213Y-47754292D01*
X109090707Y-47865786D01*
X109090711Y-47865789D01*
X109221814Y-47953390D01*
X109221827Y-47953397D01*
X109289961Y-47981618D01*
X109367503Y-48013737D01*
X109408691Y-48021929D01*
X109470602Y-48054314D01*
X109505176Y-48115030D01*
X109508500Y-48143547D01*
X109508500Y-50209906D01*
X109508499Y-50209924D01*
X109508499Y-50375630D01*
X109508498Y-50375630D01*
X109549423Y-50528362D01*
X109553238Y-50534968D01*
X109569715Y-50602867D01*
X109546867Y-50668896D01*
X109491949Y-50712090D01*
X109470049Y-50718592D01*
X109434006Y-50725762D01*
X109433998Y-50725764D01*
X109288327Y-50786102D01*
X109288314Y-50786109D01*
X109157211Y-50873710D01*
X109157207Y-50873713D01*
X109045713Y-50985207D01*
X109045710Y-50985211D01*
X108958109Y-51116314D01*
X108958102Y-51116327D01*
X108897764Y-51261998D01*
X108897761Y-51262010D01*
X108867000Y-51416653D01*
X108867000Y-51530811D01*
X108847315Y-51597850D01*
X108794511Y-51643605D01*
X108725353Y-51653549D01*
X108661797Y-51624524D01*
X108655319Y-51618492D01*
X107661319Y-50624492D01*
X107627834Y-50563169D01*
X107625000Y-50536811D01*
X107625000Y-45944233D01*
X107624999Y-45944229D01*
X107593566Y-45786205D01*
X107593565Y-45786198D01*
X107562733Y-45711765D01*
X107531903Y-45637333D01*
X107442380Y-45503352D01*
X107328447Y-45389419D01*
X107194466Y-45299896D01*
X107045602Y-45238235D01*
X107045594Y-45238233D01*
X106887570Y-45206800D01*
X106887566Y-45206800D01*
X106726434Y-45206800D01*
X106726429Y-45206800D01*
X106568405Y-45238233D01*
X106568397Y-45238235D01*
X106419533Y-45299896D01*
X106285552Y-45389419D01*
X106171619Y-45503352D01*
X106082096Y-45637333D01*
X106020435Y-45786197D01*
X106020433Y-45786205D01*
X105989000Y-45944229D01*
X105989000Y-51007570D01*
X106020433Y-51165594D01*
X106020436Y-51165606D01*
X106082093Y-51314461D01*
X106082100Y-51314474D01*
X106171617Y-51448444D01*
X106171620Y-51448448D01*
X106542991Y-51819819D01*
X106576476Y-51881142D01*
X106571492Y-51950834D01*
X106529620Y-52006767D01*
X106464156Y-52031184D01*
X106455310Y-52031500D01*
X106347155Y-52031500D01*
X106192510Y-52062261D01*
X106192498Y-52062264D01*
X106046827Y-52122602D01*
X106046814Y-52122609D01*
X105915711Y-52210210D01*
X105915707Y-52210213D01*
X105804213Y-52321707D01*
X105804210Y-52321711D01*
X105716609Y-52452814D01*
X105716602Y-52452827D01*
X105656264Y-52598498D01*
X105656261Y-52598508D01*
X105634843Y-52706183D01*
X105602458Y-52768094D01*
X105600907Y-52769672D01*
X105070350Y-53300230D01*
X105009027Y-53333715D01*
X104939336Y-53328731D01*
X104883402Y-53286860D01*
X104868109Y-53260003D01*
X104849394Y-53214821D01*
X104849390Y-53214814D01*
X104761789Y-53083711D01*
X104761786Y-53083707D01*
X104650292Y-52972213D01*
X104650288Y-52972210D01*
X104519185Y-52884609D01*
X104519172Y-52884602D01*
X104373501Y-52824264D01*
X104373489Y-52824261D01*
X104218845Y-52793500D01*
X104218842Y-52793500D01*
X104061158Y-52793500D01*
X104061155Y-52793500D01*
X103906510Y-52824261D01*
X103906498Y-52824264D01*
X103760827Y-52884602D01*
X103760814Y-52884609D01*
X103629711Y-52972210D01*
X103629707Y-52972213D01*
X103518213Y-53083707D01*
X103518210Y-53083711D01*
X103430609Y-53214814D01*
X103430602Y-53214827D01*
X103370264Y-53360498D01*
X103370261Y-53360508D01*
X103348843Y-53468183D01*
X103316458Y-53530094D01*
X103314907Y-53531672D01*
X101653163Y-55193416D01*
X101591840Y-55226901D01*
X101589675Y-55227352D01*
X101567506Y-55231761D01*
X101567500Y-55231763D01*
X101421827Y-55292102D01*
X101421814Y-55292109D01*
X101290711Y-55379710D01*
X101290707Y-55379713D01*
X101179213Y-55491207D01*
X101179207Y-55491215D01*
X101091607Y-55622318D01*
X101091603Y-55622324D01*
X101091533Y-55622496D01*
X101091471Y-55622571D01*
X101088731Y-55627699D01*
X101087758Y-55627179D01*
X101047691Y-55676899D01*
X100981396Y-55698962D01*
X100975746Y-55699035D01*
X100838000Y-55697671D01*
X94107000Y-55631029D01*
X94107000Y-45007152D01*
X94223588Y-45066557D01*
X94425757Y-45132246D01*
X94635713Y-45165500D01*
X94635714Y-45165500D01*
X94848286Y-45165500D01*
X94848287Y-45165500D01*
X95058243Y-45132246D01*
X95260412Y-45066557D01*
X95449816Y-44970051D01*
X95471789Y-44954086D01*
X95621786Y-44845109D01*
X95621788Y-44845106D01*
X95621792Y-44845104D01*
X95772104Y-44694792D01*
X95772106Y-44694788D01*
X95772109Y-44694786D01*
X95897048Y-44522820D01*
X95897047Y-44522820D01*
X95897051Y-44522816D01*
X95993557Y-44333412D01*
X96059246Y-44131243D01*
X96092500Y-43921287D01*
X96092500Y-43708713D01*
X96059246Y-43498757D01*
X95993557Y-43296588D01*
X95897051Y-43107184D01*
X95897049Y-43107181D01*
X95897048Y-43107179D01*
X95772109Y-42935213D01*
X95621786Y-42784890D01*
X95449820Y-42659951D01*
X95420447Y-42644985D01*
X95369651Y-42597011D01*
X95352856Y-42529190D01*
X95375393Y-42463055D01*
X95430108Y-42419603D01*
X95476742Y-42410500D01*
X101419058Y-42410500D01*
X101486097Y-42430185D01*
G37*
%TD.AperFunction*%
%TD*%
M02*
