M48
; DRILL file KiCad 10.0.2 date 2026-06-06T19:44:13
; FORMAT={-:-/ absolute / metric / decimal}
; #@! TF.CreationDate,2026-06-06T19:44:13-04:00
; #@! TF.GenerationSoftware,Kicad,Pcbnew,10.0.2
; #@! TF.FileFunction,Plated,1,2,PTH
FMAT,2
METRIC
; #@! TA.AperFunction,Plated,PTH,ViaDrill
T1C0.300
; #@! TA.AperFunction,Plated,PTH,ComponentDrill
T2C0.305
; #@! TA.AperFunction,Plated,PTH,ComponentDrill
T3C1.000
; #@! TA.AperFunction,Plated,PTH,ComponentDrill
T4C1.500
; #@! TA.AperFunction,Plated,PTH,ComponentDrill
T5C2.200
%
G90
G05
T1
X43.434Y-43.307
X43.434Y-44.45
X43.942Y-48.26
X44.323Y-45.339
X44.958Y-46.99
X45.085Y-55.974
X45.593Y-45.339
X46.482Y-53.34
X46.482Y-58.26
X47.879Y-55.974
X52.197Y-58.547
X52.578Y-46.482
X52.578Y-51.816
X53.213Y-57.404
X53.594Y-47.625
X53.594Y-49.149
X53.594Y-50.673
X54.991Y-56.515
X56.261Y-56.515
X57.531Y-56.515
X58.801Y-56.515
X59.309Y-50.038
X59.563Y-62.484
X61.722Y-60.198
X63.5Y-55.88
X64.897Y-53.467
X64.897Y-58.064
X66.04Y-51.308
X66.294Y-55.88
X67.462Y-76.098
X68.377Y-61.519
X68.377Y-73.66
X69.088Y-58.293
X70.104Y-57.15
X70.866Y-77.597
X71.882Y-56.515
X73.152Y-56.515
X74.422Y-56.515
X75.565Y-53.467
X75.692Y-56.515
X76.454Y-62.357
X78.613Y-60.325
X79.35Y-62.941
X80.518Y-55.913
X81.915Y-53.467
X81.915Y-58.547
X83.312Y-55.913
X84.379Y-76.098
X93.289Y-68.46
X94.107Y-54.102
X94.107Y-55.626
X94.107Y-60.706
X94.107Y-62.23
X94.107Y-66.294
X94.107Y-67.818
X94.107Y-71.882
X94.107Y-73.406
X95.25Y-53.086
X95.25Y-56.642
X95.25Y-63.373
X95.25Y-68.834
X95.25Y-74.549
X95.504Y-76.581
X98.171Y-57.785
X98.425Y-48.387
X98.425Y-63.246
X98.425Y-68.961
X98.552Y-60.96
X98.552Y-66.548
X98.552Y-72.009
X99.441Y-54.864
X99.441Y-57.277
X99.441Y-74.549
X100.076Y-63.5
X100.076Y-69.088
X101.244Y-78.486
X101.801Y-56.002
X101.854Y-61.849
X101.854Y-67.437
X101.854Y-73.025
X102.108Y-86.741
X102.489Y-104.902
X103.124Y-47.371
X103.132Y-48.689
X104.14Y-53.594
X104.648Y-47.371
X104.648Y-48.676
X104.775Y-91.313
X106.426Y-52.832
X106.807Y-46.025
X106.934Y-57.404
X107.315Y-93.98
X108.331Y-94.615
X108.712Y-78.486
X109.22Y-93.98
X109.601Y-43.434
X109.601Y-47.244
X109.601Y-56.134
X109.667Y-51.495
X110.998Y-45.085
X110.998Y-48.641
X110.998Y-52.959
X112.395Y-43.434
X112.522Y-47.371
X113.106Y-86.284
X116.332Y-76.581
X118.491Y-88.773
X119.126Y-88.011
X119.761Y-88.773
X123.952Y-103.251
X124.33Y-78.762
X128.016Y-58.674
X128.524Y-45.974
X128.524Y-49.784
X129.284Y-54.866
X131.318Y-57.531
X131.572Y-53.594
X131.572Y-59.944
X134.62Y-51.01
X134.62Y-51.86
X139.192Y-104.902
X139.446Y-85.725
X140.208Y-81.991
X140.589Y-124.206
X141.024Y-82.753
X141.478Y-142.62
X141.884Y-81.991
X143.51Y-64.389
X143.637Y-50.038
X143.637Y-52.197
X145.923Y-63.246
X146.431Y-56.134
X147.955Y-56.134
X148.717Y-50.927
X148.971Y-49.403
X149.225Y-52.197
X151.765Y-56.134
X153.289Y-56.134
X154.178Y-50.292
X154.178Y-52.197
X155.067Y-54.229
X155.194Y-61.176
X156.21Y-61.63
X156.591Y-54.229
X157.353Y-62.103
X160.909Y-59.69
X161.925Y-58.42
X162.052Y-52.959
X163.703Y-53.848
X168.021Y-59.69
X169.037Y-58.42
X169.164Y-52.959
X170.815Y-53.848
X175.133Y-59.69
X176.149Y-58.42
X176.276Y-52.959
T2
X114.806Y-50.011
X114.806Y-51.536
X115.569Y-49.249
X115.569Y-50.774
X115.569Y-52.299
X116.331Y-50.011
X116.331Y-51.536
X117.093Y-49.249
X117.093Y-50.774
X117.093Y-52.299
X117.856Y-50.011
X117.856Y-51.536
T3
X44.953Y-43.815
X47.493Y-43.815
X57.15Y-43.815
X59.69Y-43.815
X62.23Y-43.815
X64.77Y-43.815
X69.596Y-43.815
X72.136Y-43.815
X74.676Y-43.815
X77.216Y-43.815
X79.756Y-43.815
X84.582Y-43.815
X87.122Y-43.815
X89.662Y-43.815
X92.202Y-43.815
X94.742Y-43.815
X99.614Y-43.815
X102.154Y-43.815
X132.461Y-43.815
X135.001Y-43.815
X137.541Y-43.815
X137.922Y-50.165
X137.922Y-52.705
X137.922Y-55.245
X137.922Y-57.785
X140.081Y-43.815
X145.034Y-43.815
X147.574Y-43.815
X150.114Y-43.815
X152.654Y-43.815
X157.734Y-43.815
X160.274Y-43.815
X162.814Y-43.815
X165.354Y-43.815
X167.894Y-43.815
X170.434Y-43.815
X172.974Y-43.815
X175.514Y-43.815
T4
X48.26Y-86.106
X48.26Y-105.41
X48.26Y-124.714
X48.26Y-144.018
X54.61Y-83.566
X54.61Y-102.87
X54.61Y-122.174
X54.61Y-141.478
X67.564Y-86.106
X67.564Y-105.41
X67.564Y-124.714
X67.564Y-144.018
X73.914Y-83.566
X73.914Y-102.87
X73.914Y-122.174
X73.914Y-141.478
X86.868Y-86.106
X86.868Y-105.41
X86.868Y-124.714
X86.868Y-144.018
X93.218Y-83.566
X93.218Y-102.87
X93.218Y-122.174
X93.218Y-141.478
X106.172Y-124.714
X106.172Y-144.018
X112.522Y-122.174
X112.522Y-141.478
X125.476Y-86.106
X125.476Y-105.41
X125.476Y-124.714
X125.476Y-144.018
X131.826Y-83.566
X131.826Y-102.87
X131.826Y-122.174
X131.826Y-141.478
X144.78Y-86.106
X144.78Y-105.41
X144.78Y-124.714
X144.78Y-144.018
X151.13Y-83.566
X151.13Y-102.87
X151.13Y-122.174
X151.13Y-141.478
X164.084Y-86.106
X164.084Y-105.41
X164.084Y-124.714
X164.084Y-144.018
X170.434Y-83.566
X170.434Y-102.87
X170.434Y-122.174
X170.434Y-141.478
T5
X61.722Y-98.298
X61.722Y-136.906
X100.33Y-98.298
X100.33Y-136.906
X119.634Y-98.298
X119.634Y-136.906
X158.242Y-98.298
X158.242Y-136.906
M30
