%TF.GenerationSoftware,KiCad,Pcbnew,10.0.2*%
%TF.CreationDate,2026-06-06T19:44:15-04:00*%
%TF.ProjectId,FourthAxis,466f7572-7468-4417-9869-732e6b696361,rev?*%
%TF.SameCoordinates,Original*%
%TF.FileFunction,Paste,Top*%
%TF.FilePolarity,Positive*%
%FSLAX46Y46*%
G04 Gerber Fmt 4.6, Leading zero omitted, Abs format (unit mm)*
G04 Created by KiCad (PCBNEW 10.0.2) date 2026-06-06 19:44:15*
%MOMM*%
%LPD*%
G01*
G04 APERTURE LIST*
G04 Aperture macros list*
%AMRoundRect*
0 Rectangle with rounded corners*
0 $1 Rounding radius*
0 $2 $3 $4 $5 $6 $7 $8 $9 X,Y pos of 4 corners*
0 Add a 4 corners polygon primitive as box body*
4,1,4,$2,$3,$4,$5,$6,$7,$8,$9,$2,$3,0*
0 Add four circle primitives for the rounded corners*
1,1,$1+$1,$2,$3*
1,1,$1+$1,$4,$5*
1,1,$1+$1,$6,$7*
1,1,$1+$1,$8,$9*
0 Add four rect primitives between the rounded corners*
20,1,$1+$1,$2,$3,$4,$5,0*
20,1,$1+$1,$4,$5,$6,$7,0*
20,1,$1+$1,$6,$7,$8,$9,0*
20,1,$1+$1,$8,$9,$2,$3,0*%
G04 Aperture macros list end*
%ADD10RoundRect,0.225000X0.225000X0.375000X-0.225000X0.375000X-0.225000X-0.375000X0.225000X-0.375000X0*%
%ADD11RoundRect,0.225000X0.250000X-0.225000X0.250000X0.225000X-0.250000X0.225000X-0.250000X-0.225000X0*%
%ADD12RoundRect,0.225000X-0.225000X-0.250000X0.225000X-0.250000X0.225000X0.250000X-0.225000X0.250000X0*%
%ADD13RoundRect,0.225000X0.375000X-0.225000X0.375000X0.225000X-0.375000X0.225000X-0.375000X-0.225000X0*%
%ADD14RoundRect,0.200000X0.275000X-0.200000X0.275000X0.200000X-0.275000X0.200000X-0.275000X-0.200000X0*%
%ADD15RoundRect,0.200000X-0.200000X-0.275000X0.200000X-0.275000X0.200000X0.275000X-0.200000X0.275000X0*%
%ADD16R,2.900000X5.400000*%
%ADD17RoundRect,0.225000X0.225000X0.250000X-0.225000X0.250000X-0.225000X-0.250000X0.225000X-0.250000X0*%
%ADD18RoundRect,0.218750X-0.218750X-0.256250X0.218750X-0.256250X0.218750X0.256250X-0.218750X0.256250X0*%
%ADD19RoundRect,0.225000X-0.250000X0.225000X-0.250000X-0.225000X0.250000X-0.225000X0.250000X0.225000X0*%
%ADD20RoundRect,0.200000X-0.275000X0.200000X-0.275000X-0.200000X0.275000X-0.200000X0.275000X0.200000X0*%
%ADD21RoundRect,0.150000X0.150000X-0.825000X0.150000X0.825000X-0.150000X0.825000X-0.150000X-0.825000X0*%
%ADD22RoundRect,0.225000X-0.225000X-0.375000X0.225000X-0.375000X0.225000X0.375000X-0.225000X0.375000X0*%
%ADD23RoundRect,0.200000X0.200000X0.275000X-0.200000X0.275000X-0.200000X-0.275000X0.200000X-0.275000X0*%
%ADD24RoundRect,0.250000X0.550000X-1.500000X0.550000X1.500000X-0.550000X1.500000X-0.550000X-1.500000X0*%
%ADD25RoundRect,0.150000X-0.825000X-0.150000X0.825000X-0.150000X0.825000X0.150000X-0.825000X0.150000X0*%
%ADD26RoundRect,0.150000X0.512500X0.150000X-0.512500X0.150000X-0.512500X-0.150000X0.512500X-0.150000X0*%
%ADD27R,0.900000X1.000000*%
%ADD28RoundRect,0.150000X0.150000X-0.512500X0.150000X0.512500X-0.150000X0.512500X-0.150000X-0.512500X0*%
%ADD29R,1.000000X0.900000*%
%ADD30RoundRect,0.250000X-0.550000X1.500000X-0.550000X-1.500000X0.550000X-1.500000X0.550000X1.500000X0*%
%ADD31R,1.500000X0.900000*%
%ADD32R,0.900000X1.500000*%
%ADD33R,1.050000X1.050000*%
G04 APERTURE END LIST*
D10*
%TO.C,D25*%
X173862000Y-117602000D03*
X170562000Y-117602000D03*
%TD*%
D11*
%TO.C,C12*%
X163703000Y-52845000D03*
X163703000Y-51295000D03*
%TD*%
D12*
%TO.C,C23*%
X95237000Y-66283000D03*
X96787000Y-66283000D03*
%TD*%
D13*
%TO.C,D18*%
X139192000Y-144906000D03*
X139192000Y-141606000D03*
%TD*%
D14*
%TO.C,R30*%
X45720000Y-74485000D03*
X45720000Y-72835000D03*
%TD*%
D13*
%TO.C,D15*%
X139446000Y-86994000D03*
X139446000Y-83694000D03*
%TD*%
D15*
%TO.C,R6*%
X128905000Y-59944000D03*
X130555000Y-59944000D03*
%TD*%
D16*
%TO.C,L1*%
X56137000Y-70231000D03*
X66037000Y-70231000D03*
%TD*%
D15*
%TO.C,R22*%
X173546000Y-49403000D03*
X175196000Y-49403000D03*
%TD*%
D17*
%TO.C,C20*%
X96787000Y-73406000D03*
X95237000Y-73406000D03*
%TD*%
D13*
%TO.C,D7*%
X81280000Y-125602000D03*
X81280000Y-122302000D03*
%TD*%
D15*
%TO.C,R23*%
X166434000Y-58609000D03*
X168084000Y-58609000D03*
%TD*%
D14*
%TO.C,R9*%
X150235500Y-55120000D03*
X150235500Y-53470000D03*
%TD*%
D18*
%TO.C,D31*%
X45720000Y-76073000D03*
X47295000Y-76073000D03*
%TD*%
D11*
%TO.C,C7*%
X102362000Y-48019000D03*
X102362000Y-46469000D03*
%TD*%
D15*
%TO.C,R16*%
X58929000Y-48648000D03*
X60579000Y-48648000D03*
%TD*%
D13*
%TO.C,D2*%
X61976000Y-106298000D03*
X61976000Y-102998000D03*
%TD*%
D10*
%TO.C,D26*%
X173862000Y-136906000D03*
X170562000Y-136906000D03*
%TD*%
D19*
%TO.C,C16*%
X153296500Y-53520000D03*
X153296500Y-55070000D03*
%TD*%
D13*
%TO.C,D14*%
X119888000Y-145160000D03*
X119888000Y-141860000D03*
%TD*%
D15*
%TO.C,R20*%
X95187000Y-59176500D03*
X96837000Y-59176500D03*
%TD*%
D13*
%TO.C,D19*%
X158496000Y-86994000D03*
X158496000Y-83694000D03*
%TD*%
D17*
%TO.C,C22*%
X96787000Y-67807000D03*
X95237000Y-67807000D03*
%TD*%
D20*
%TO.C,R35*%
X104521000Y-49594000D03*
X104521000Y-51244000D03*
%TD*%
D21*
%TO.C,U6*%
X71882000Y-59879000D03*
X73152000Y-59879000D03*
X74422000Y-59879000D03*
X75692000Y-59879000D03*
X75692000Y-54929000D03*
X74422000Y-54929000D03*
X73152000Y-54929000D03*
X71882000Y-54929000D03*
%TD*%
D15*
%TO.C,R26*%
X159322000Y-49481000D03*
X160972000Y-49481000D03*
%TD*%
D22*
%TO.C,D27*%
X55119000Y-62451000D03*
X58419000Y-62451000D03*
%TD*%
D10*
%TO.C,D23*%
X173862000Y-78994000D03*
X170562000Y-78994000D03*
%TD*%
D23*
%TO.C,R2*%
X107568000Y-88392000D03*
X105918000Y-88392000D03*
%TD*%
D14*
%TO.C,R31*%
X47244000Y-62293000D03*
X47244000Y-60643000D03*
%TD*%
D13*
%TO.C,D5*%
X81280000Y-86994000D03*
X81280000Y-83694000D03*
%TD*%
D21*
%TO.C,U12*%
X165354000Y-56450000D03*
X166624000Y-56450000D03*
X167894000Y-56450000D03*
X169164000Y-56450000D03*
X169164000Y-51500000D03*
X167894000Y-51500000D03*
X166624000Y-51500000D03*
X165354000Y-51500000D03*
%TD*%
D14*
%TO.C,R34*%
X48768000Y-74485000D03*
X48768000Y-72835000D03*
%TD*%
D21*
%TO.C,U5*%
X54991000Y-59973000D03*
X56261000Y-59973000D03*
X57531000Y-59973000D03*
X58801000Y-59973000D03*
X58801000Y-55023000D03*
X57531000Y-55023000D03*
X56261000Y-55023000D03*
X54991000Y-55023000D03*
%TD*%
D15*
%TO.C,R8*%
X128899000Y-53594000D03*
X130549000Y-53594000D03*
%TD*%
D24*
%TO.C,C3*%
X64897000Y-61214000D03*
X64897000Y-55814000D03*
%TD*%
D14*
%TO.C,R32*%
X47244000Y-68389000D03*
X47244000Y-66739000D03*
%TD*%
D13*
%TO.C,D22*%
X158496000Y-144906000D03*
X158496000Y-141606000D03*
%TD*%
D14*
%TO.C,R33*%
X47244000Y-74485000D03*
X47244000Y-72835000D03*
%TD*%
D15*
%TO.C,R1*%
X105918000Y-91440000D03*
X107568000Y-91440000D03*
%TD*%
D25*
%TO.C,U2*%
X111509000Y-84455000D03*
X111509000Y-85725000D03*
X111509000Y-86995000D03*
X111509000Y-88265000D03*
X111509000Y-89535000D03*
X111509000Y-90805000D03*
X111509000Y-92075000D03*
X111509000Y-93345000D03*
X116459000Y-93345000D03*
X116459000Y-92075000D03*
X116459000Y-90805000D03*
X116459000Y-89535000D03*
X116459000Y-88265000D03*
X116459000Y-86995000D03*
X116459000Y-85725000D03*
X116459000Y-84455000D03*
%TD*%
D11*
%TO.C,C11*%
X155067000Y-53226000D03*
X155067000Y-51676000D03*
%TD*%
D13*
%TO.C,D16*%
X139192000Y-106298000D03*
X139192000Y-102998000D03*
%TD*%
%TO.C,D3*%
X61976000Y-125602000D03*
X61976000Y-122302000D03*
%TD*%
D11*
%TO.C,C8*%
X103886000Y-48019000D03*
X103886000Y-46469000D03*
%TD*%
D20*
%TO.C,R27*%
X102616000Y-49607000D03*
X102616000Y-51257000D03*
%TD*%
D14*
%TO.C,R10*%
X144901500Y-55120000D03*
X144901500Y-53470000D03*
%TD*%
D20*
%TO.C,R14*%
X74041000Y-48458000D03*
X74041000Y-50108000D03*
%TD*%
D13*
%TO.C,D9*%
X100584000Y-86994000D03*
X100584000Y-83694000D03*
%TD*%
D15*
%TO.C,R4*%
X121476000Y-63881000D03*
X123126000Y-63881000D03*
%TD*%
D11*
%TO.C,C2*%
X53213000Y-60051000D03*
X53213000Y-58501000D03*
%TD*%
D15*
%TO.C,R7*%
X128905000Y-56769000D03*
X130555000Y-56769000D03*
%TD*%
D13*
%TO.C,D13*%
X119888000Y-125602000D03*
X119888000Y-122302000D03*
%TD*%
D12*
%TO.C,C27*%
X95237000Y-54102000D03*
X96787000Y-54102000D03*
%TD*%
D22*
%TO.C,D28*%
X72009000Y-62357000D03*
X75309000Y-62357000D03*
%TD*%
D26*
%TO.C,U3*%
X152897000Y-51816000D03*
X152897000Y-50866000D03*
X152897000Y-49916000D03*
X150622000Y-49916000D03*
X150622000Y-50866000D03*
X150622000Y-51816000D03*
%TD*%
D13*
%TO.C,D4*%
X61976000Y-144906000D03*
X61976000Y-141606000D03*
%TD*%
%TO.C,D12*%
X100584000Y-144906000D03*
X100584000Y-141606000D03*
%TD*%
D10*
%TO.C,D32*%
X47243000Y-46997000D03*
X43943000Y-46997000D03*
%TD*%
D20*
%TO.C,R12*%
X77470000Y-58738000D03*
X77470000Y-60388000D03*
%TD*%
D15*
%TO.C,R19*%
X95187000Y-64753500D03*
X96837000Y-64753500D03*
%TD*%
D16*
%TO.C,L2*%
X72012000Y-70231000D03*
X81912000Y-70231000D03*
%TD*%
D18*
%TO.C,D29*%
X45720000Y-63881000D03*
X47295000Y-63881000D03*
%TD*%
D27*
%TO.C,SW30*%
X96357000Y-46736000D03*
X100457000Y-46736000D03*
X96357000Y-48336000D03*
X100457000Y-48336000D03*
%TD*%
D13*
%TO.C,D17*%
X139192000Y-125602000D03*
X139192000Y-122302000D03*
%TD*%
D15*
%TO.C,R24*%
X166688000Y-49403000D03*
X168338000Y-49403000D03*
%TD*%
D13*
%TO.C,D1*%
X61976000Y-86994000D03*
X61976000Y-83694000D03*
%TD*%
D17*
%TO.C,C26*%
X96787000Y-55626000D03*
X95237000Y-55626000D03*
%TD*%
%TO.C,C19*%
X117869000Y-81280000D03*
X116319000Y-81280000D03*
%TD*%
D18*
%TO.C,D30*%
X45720000Y-69977000D03*
X47295000Y-69977000D03*
%TD*%
D28*
%TO.C,U10*%
X98491000Y-56001500D03*
X99441000Y-56001500D03*
X100391000Y-56001500D03*
X100391000Y-53726500D03*
X99441000Y-53726500D03*
X98491000Y-53726500D03*
%TD*%
%TO.C,U8*%
X98491000Y-67426000D03*
X99441000Y-67426000D03*
X100391000Y-67426000D03*
X100391000Y-65151000D03*
X99441000Y-65151000D03*
X98491000Y-65151000D03*
%TD*%
D15*
%TO.C,R17*%
X61977000Y-48648000D03*
X63627000Y-48648000D03*
%TD*%
D24*
%TO.C,C6*%
X81915000Y-61247000D03*
X81915000Y-55847000D03*
%TD*%
D23*
%TO.C,R5*%
X107568000Y-92964000D03*
X105918000Y-92964000D03*
%TD*%
D13*
%TO.C,D6*%
X81280000Y-106298000D03*
X81280000Y-102998000D03*
%TD*%
D11*
%TO.C,C15*%
X146425500Y-55070000D03*
X146425500Y-53520000D03*
%TD*%
D21*
%TO.C,U13*%
X158242000Y-56450000D03*
X159512000Y-56450000D03*
X160782000Y-56450000D03*
X162052000Y-56450000D03*
X162052000Y-51500000D03*
X160782000Y-51500000D03*
X159512000Y-51500000D03*
X158242000Y-51500000D03*
%TD*%
D29*
%TO.C,SW29*%
X132550000Y-68217000D03*
X132550000Y-64117000D03*
X134150000Y-68217000D03*
X134150000Y-64117000D03*
%TD*%
D23*
%TO.C,R3*%
X107568000Y-89916000D03*
X105918000Y-89916000D03*
%TD*%
D30*
%TO.C,C4*%
X46482000Y-50393000D03*
X46482000Y-55793000D03*
%TD*%
D13*
%TO.C,D11*%
X100584000Y-125602000D03*
X100584000Y-122302000D03*
%TD*%
D17*
%TO.C,C24*%
X96787000Y-62219000D03*
X95237000Y-62219000D03*
%TD*%
D15*
%TO.C,R25*%
X159322000Y-58622000D03*
X160972000Y-58622000D03*
%TD*%
D11*
%TO.C,C13*%
X170815000Y-52845000D03*
X170815000Y-51295000D03*
%TD*%
D28*
%TO.C,U9*%
X98491000Y-61838000D03*
X99441000Y-61838000D03*
X100391000Y-61838000D03*
X100391000Y-59563000D03*
X99441000Y-59563000D03*
X98491000Y-59563000D03*
%TD*%
D13*
%TO.C,D8*%
X81280000Y-144906000D03*
X81280000Y-141606000D03*
%TD*%
D21*
%TO.C,U11*%
X172466000Y-56450000D03*
X173736000Y-56450000D03*
X175006000Y-56450000D03*
X176276000Y-56450000D03*
X176276000Y-51500000D03*
X175006000Y-51500000D03*
X173736000Y-51500000D03*
X172466000Y-51500000D03*
%TD*%
D11*
%TO.C,C9*%
X105410000Y-48019000D03*
X105410000Y-46469000D03*
%TD*%
D13*
%TO.C,D10*%
X100584000Y-106298000D03*
X100584000Y-102998000D03*
%TD*%
D26*
%TO.C,U4*%
X147563000Y-51816000D03*
X147563000Y-50866000D03*
X147563000Y-49916000D03*
X145288000Y-49916000D03*
X145288000Y-50866000D03*
X145288000Y-51816000D03*
%TD*%
D28*
%TO.C,U7*%
X98491000Y-73019500D03*
X99441000Y-73019500D03*
X100391000Y-73019500D03*
X100391000Y-70744500D03*
X99441000Y-70744500D03*
X98491000Y-70744500D03*
%TD*%
D14*
%TO.C,R28*%
X45720000Y-62293000D03*
X45720000Y-60643000D03*
%TD*%
D17*
%TO.C,C18*%
X117869000Y-82804000D03*
X116319000Y-82804000D03*
%TD*%
D11*
%TO.C,C10*%
X156591000Y-53226000D03*
X156591000Y-51676000D03*
%TD*%
D15*
%TO.C,R18*%
X95187000Y-70358000D03*
X96837000Y-70358000D03*
%TD*%
D20*
%TO.C,R15*%
X75565000Y-48458000D03*
X75565000Y-50108000D03*
%TD*%
D14*
%TO.C,R29*%
X45720000Y-68389000D03*
X45720000Y-66739000D03*
%TD*%
D11*
%TO.C,C17*%
X151759500Y-55070000D03*
X151759500Y-53520000D03*
%TD*%
D17*
%TO.C,C29*%
X52578000Y-49149000D03*
X51028000Y-49149000D03*
%TD*%
D12*
%TO.C,C21*%
X95237000Y-71882000D03*
X96787000Y-71882000D03*
%TD*%
D11*
%TO.C,C5*%
X70104000Y-59830000D03*
X70104000Y-58280000D03*
%TD*%
D31*
%TO.C,U1*%
X108261000Y-43434000D03*
X108261000Y-44704000D03*
X108261000Y-45974000D03*
X108261000Y-47244000D03*
X108261000Y-48514000D03*
X108261000Y-49784000D03*
X108261000Y-51054000D03*
X108261000Y-52324000D03*
X108261000Y-53594000D03*
X108261000Y-54864000D03*
X108261000Y-56134000D03*
X108261000Y-57404000D03*
X108261000Y-58674000D03*
X108261000Y-59944000D03*
D32*
X111301000Y-61194000D03*
X112571000Y-61194000D03*
X113841000Y-61194000D03*
X115111000Y-61194000D03*
X116381000Y-61194000D03*
X117651000Y-61194000D03*
X118921000Y-61194000D03*
X120191000Y-61194000D03*
X121461000Y-61194000D03*
X122731000Y-61194000D03*
D31*
X125761000Y-59944000D03*
X125761000Y-58674000D03*
X125761000Y-57404000D03*
X125761000Y-56134000D03*
X125761000Y-54864000D03*
X125761000Y-53594000D03*
X125761000Y-52324000D03*
X125761000Y-51054000D03*
X125761000Y-49784000D03*
X125761000Y-48514000D03*
X125761000Y-47244000D03*
X125761000Y-45974000D03*
X125761000Y-44704000D03*
X125761000Y-43434000D03*
D33*
X114806000Y-49249000D03*
X114806000Y-50774000D03*
X114806000Y-52299000D03*
X116331000Y-49249000D03*
X116331000Y-50774000D03*
X116331000Y-52299000D03*
X117856000Y-49249000D03*
X117856000Y-50774000D03*
X117856000Y-52299000D03*
%TD*%
D20*
%TO.C,R13*%
X72517000Y-48458000D03*
X72517000Y-50108000D03*
%TD*%
D13*
%TO.C,D21*%
X158496000Y-125602000D03*
X158496000Y-122302000D03*
%TD*%
D12*
%TO.C,C30*%
X51028000Y-47625000D03*
X52578000Y-47625000D03*
%TD*%
D10*
%TO.C,D24*%
X173862000Y-98298000D03*
X170562000Y-98298000D03*
%TD*%
D20*
%TO.C,R11*%
X60452000Y-58611000D03*
X60452000Y-60261000D03*
%TD*%
D17*
%TO.C,C28*%
X52565000Y-50673000D03*
X51015000Y-50673000D03*
%TD*%
D19*
%TO.C,C14*%
X147949500Y-53520000D03*
X147949500Y-55070000D03*
%TD*%
D13*
%TO.C,D20*%
X158496000Y-106298000D03*
X158496000Y-102998000D03*
%TD*%
D15*
%TO.C,R21*%
X173546000Y-58609000D03*
X175196000Y-58609000D03*
%TD*%
D12*
%TO.C,C25*%
X95237000Y-60700500D03*
X96787000Y-60700500D03*
%TD*%
M02*
