M48
; DRILL file KiCad 10.0.2 date 2026-06-06T19:44:13
; FORMAT={-:-/ absolute / metric / decimal}
; #@! TF.CreationDate,2026-06-06T19:44:13-04:00
; #@! TF.GenerationSoftware,Kicad,Pcbnew,10.0.2
; #@! TF.FileFunction,NonPlated,1,2,NPTH
FMAT,2
METRIC
; #@! TA.AperFunction,NonPlated,NPTH,ComponentDrill
T1C1.700
; #@! TA.AperFunction,NonPlated,NPTH,ComponentDrill
T2C4.000
%
G90
G05
T1
X46.99Y-88.646
X46.99Y-107.95
X46.99Y-127.254
X46.99Y-146.558
X57.15Y-88.646
X57.15Y-107.95
X57.15Y-127.254
X57.15Y-146.558
X66.294Y-88.646
X66.294Y-107.95
X66.294Y-127.254
X66.294Y-146.558
X76.454Y-88.646
X76.454Y-107.95
X76.454Y-127.254
X76.454Y-146.558
X85.598Y-88.646
X85.598Y-107.95
X85.598Y-127.254
X85.598Y-146.558
X95.758Y-88.646
X95.758Y-107.95
X95.758Y-127.254
X95.758Y-146.558
X104.902Y-127.254
X104.902Y-146.558
X115.062Y-127.254
X115.062Y-146.558
X124.206Y-88.646
X124.206Y-107.95
X124.206Y-127.254
X124.206Y-146.558
X134.366Y-88.646
X134.366Y-107.95
X134.366Y-127.254
X134.366Y-146.558
X143.51Y-88.646
X143.51Y-107.95
X143.51Y-127.254
X143.51Y-146.558
X153.67Y-88.646
X153.67Y-107.95
X153.67Y-127.254
X153.67Y-146.558
X162.814Y-88.646
X162.814Y-107.95
X162.814Y-127.254
X162.814Y-146.558
X172.974Y-88.646
X172.974Y-107.95
X172.974Y-127.254
X172.974Y-146.558
T2
X52.07Y-88.646
X52.07Y-107.95
X52.07Y-127.254
X52.07Y-146.558
X71.374Y-88.646
X71.374Y-107.95
X71.374Y-127.254
X71.374Y-146.558
X90.678Y-88.646
X90.678Y-107.95
X90.678Y-127.254
X90.678Y-146.558
X109.982Y-127.254
X109.982Y-146.558
X129.286Y-88.646
X129.286Y-107.95
X129.286Y-127.254
X129.286Y-146.558
X148.59Y-88.646
X148.59Y-107.95
X148.59Y-127.254
X148.59Y-146.558
X167.894Y-88.646
X167.894Y-107.95
X167.894Y-127.254
X167.894Y-146.558
M30
